%TF.GenerationSoftware,KiCad,Pcbnew,9.0.5*%
%TF.CreationDate,2025-11-02T19:46:25-03:00*%
%TF.ProjectId,WCM_v1D,57434d5f-7631-4442-9e6b-696361645f70,rev?*%
%TF.SameCoordinates,Original*%
%TF.FileFunction,Copper,L1,Top*%
%TF.FilePolarity,Positive*%
%FSLAX46Y46*%
G04 Gerber Fmt 4.6, Leading zero omitted, Abs format (unit mm)*
G04 Created by KiCad (PCBNEW 9.0.5) date 2025-11-02 19:46:25*
%MOMM*%
%LPD*%
G01*
G04 APERTURE LIST*
G04 Aperture macros list*
%AMRoundRect*
0 Rectangle with rounded corners*
0 $1 Rounding radius*
0 $2 $3 $4 $5 $6 $7 $8 $9 X,Y pos of 4 corners*
0 Add a 4 corners polygon primitive as box body*
4,1,4,$2,$3,$4,$5,$6,$7,$8,$9,$2,$3,0*
0 Add four circle primitives for the rounded corners*
1,1,$1+$1,$2,$3*
1,1,$1+$1,$4,$5*
1,1,$1+$1,$6,$7*
1,1,$1+$1,$8,$9*
0 Add four rect primitives between the rounded corners*
20,1,$1+$1,$2,$3,$4,$5,0*
20,1,$1+$1,$4,$5,$6,$7,0*
20,1,$1+$1,$6,$7,$8,$9,0*
20,1,$1+$1,$8,$9,$2,$3,0*%
G04 Aperture macros list end*
%TA.AperFunction,SMDPad,CuDef*%
%ADD10R,1.050000X1.950000*%
%TD*%
%TA.AperFunction,SMDPad,CuDef*%
%ADD11R,1.050000X1.000000*%
%TD*%
%TA.AperFunction,SMDPad,CuDef*%
%ADD12R,2.200000X1.050000*%
%TD*%
%TA.AperFunction,SMDPad,CuDef*%
%ADD13R,1.000000X3.150000*%
%TD*%
%TA.AperFunction,SMDPad,CuDef*%
%ADD14RoundRect,0.250000X0.550000X-1.050000X0.550000X1.050000X-0.550000X1.050000X-0.550000X-1.050000X0*%
%TD*%
%TA.AperFunction,ComponentPad*%
%ADD15R,1.700000X1.700000*%
%TD*%
%TA.AperFunction,ComponentPad*%
%ADD16C,1.700000*%
%TD*%
%TA.AperFunction,ViaPad*%
%ADD17C,0.600000*%
%TD*%
%TA.AperFunction,Conductor*%
%ADD18C,0.800000*%
%TD*%
%TA.AperFunction,Conductor*%
%ADD19C,0.150000*%
%TD*%
G04 APERTURE END LIST*
D10*
%TO.P,U1,1,GND*%
%TO.N,GND*%
X141975844Y-104358868D03*
%TO.P,U1,2,MISO*%
%TO.N,MISO*%
X143975844Y-104358868D03*
%TO.P,U1,3,MOSI*%
%TO.N,MOSI*%
X145975844Y-104358868D03*
%TO.P,U1,4,SCK*%
%TO.N,SCK*%
X147975844Y-104358868D03*
%TO.P,U1,5,NSS*%
%TO.N,RST*%
X149975844Y-104358868D03*
%TO.P,U1,6,RESET*%
%TO.N,CS_LORA*%
X151975844Y-104358868D03*
%TO.P,U1,7,DIO5*%
%TO.N,unconnected-(U1-DIO5-Pad7)*%
X153975844Y-104358868D03*
%TO.P,U1,8,GND@1*%
%TO.N,GND*%
X155975844Y-104358868D03*
%TO.P,U1,9,ANT*%
%TO.N,ANT*%
X155975844Y-89558868D03*
%TO.P,U1,10,GND@2*%
%TO.N,GND*%
X153975844Y-89558868D03*
%TO.P,U1,11,DIO3*%
%TO.N,unconnected-(U1-DIO3-Pad11)*%
X151975844Y-89558868D03*
%TO.P,U1,12,DIO4*%
%TO.N,unconnected-(U1-DIO4-Pad12)*%
X149975844Y-89558868D03*
%TO.P,U1,13,3_3V*%
%TO.N,3V3*%
X147975844Y-89558868D03*
%TO.P,U1,14,DIO0*%
%TO.N,Net-(U1-DIO0)*%
X145975844Y-89558868D03*
%TO.P,U1,15,DIO1*%
%TO.N,SCL_esp*%
X143975844Y-89558868D03*
%TO.P,U1,16,DIO2*%
%TO.N,SDA_esp*%
X141975844Y-89558868D03*
%TD*%
D11*
%TO.P,ANT,1,SIGNAL*%
%TO.N,ANT*%
X160775000Y-89625000D03*
D12*
%TO.P,ANT,2,GND_1*%
%TO.N,GND*%
X162300000Y-91100000D03*
D11*
%TO.P,ANT,3,GND_2*%
X163825000Y-89625000D03*
D12*
%TO.P,ANT,4,GND_3*%
X162300000Y-88150000D03*
%TD*%
D13*
%TO.P,J1,1,Pin_1*%
%TO.N,SCK*%
X159241192Y-76762649D03*
%TO.P,J1,2,Pin_2*%
%TO.N,SDA_esp*%
X159241192Y-81812649D03*
%TO.P,J1,3,Pin_3*%
%TO.N,RX_esp*%
X156701192Y-76762649D03*
%TO.P,J1,4,Pin_4*%
%TO.N,SCL_esp*%
X156701192Y-81812649D03*
%TO.P,J1,5,Pin_5*%
%TO.N,TX_esp*%
X154161192Y-76762649D03*
%TO.P,J1,6,Pin_6*%
%TO.N,unconnected-(J1-Pin_6-Pad6)*%
X154161192Y-81812649D03*
%TO.P,J1,7,Pin_7*%
%TO.N,MOSI*%
X151621192Y-76762649D03*
%TO.P,J1,8,Pin_8*%
%TO.N,CS_RP*%
X151621192Y-81812649D03*
%TO.P,J1,9,Pin_9*%
%TO.N,unconnected-(J1-Pin_9-Pad9)*%
X149081192Y-76762649D03*
%TO.P,J1,10,Pin_10*%
%TO.N,unconnected-(J1-Pin_10-Pad10)*%
X149081192Y-81812649D03*
%TO.P,J1,11,Pin_11*%
%TO.N,unconnected-(J1-Pin_11-Pad11)*%
X146541192Y-76762649D03*
%TO.P,J1,12,Pin_12*%
%TO.N,MISO*%
X146541192Y-81812649D03*
%TO.P,J1,13,Pin_13*%
%TO.N,GND*%
X144001192Y-76762649D03*
%TO.P,J1,14,Pin_14*%
%TO.N,VBUS*%
X144001192Y-81812649D03*
%TD*%
D14*
%TO.P,C1,1*%
%TO.N,3V3*%
X162300000Y-104500000D03*
%TO.P,C1,2*%
%TO.N,GND*%
X162300000Y-100900000D03*
%TD*%
D15*
%TO.P,J2,1,Pin_1*%
%TO.N,unconnected-(J2-Pin_1-Pad1)*%
X158330000Y-110669726D03*
D16*
%TO.P,J2,2,Pin_2*%
%TO.N,RX_esp*%
X155790000Y-110669726D03*
%TO.P,J2,3,Pin_3*%
%TO.N,TX_esp*%
X153250000Y-110669726D03*
%TO.P,J2,4,Pin_4*%
%TO.N,GND*%
X150710000Y-110669726D03*
%TO.P,J2,5,Pin_5*%
%TO.N,VBUS*%
X148170000Y-110669726D03*
%TO.P,J2,6,Pin_6*%
%TO.N,unconnected-(J2-Pin_6-Pad6)*%
X145630000Y-110669726D03*
%TD*%
D17*
%TO.N,GND*%
X141000000Y-103100000D03*
X151484429Y-99492987D03*
X163825000Y-89625000D03*
X140418918Y-77693796D03*
X162300000Y-91100000D03*
X162300000Y-88150000D03*
X144001192Y-76762649D03*
X154700000Y-92100000D03*
X162300000Y-100900000D03*
%TO.N,SDA_esp*%
X159241192Y-81812649D03*
X142000000Y-92000000D03*
%TO.N,RX_esp*%
X158451208Y-104951208D03*
X156701192Y-76762649D03*
%TO.N,SCK*%
X155900000Y-106400000D03*
X159241192Y-76762649D03*
%TO.N,MISO*%
X144000000Y-102600000D03*
X146541192Y-81812649D03*
%TO.N,MOSI*%
X146000000Y-102800000D03*
X151621192Y-76762649D03*
%TO.N,CS_RP*%
X151621192Y-81812649D03*
%TO.N,CS_LORA*%
X148200000Y-87300000D03*
%TO.N,3V3*%
X162300000Y-104500000D03*
X145000000Y-86100000D03*
X142180645Y-85293796D03*
%TO.N,SCL_esp*%
X156701192Y-81812649D03*
X144000000Y-92000000D03*
%TO.N,VBUS*%
X144001192Y-81812649D03*
X140406357Y-81306357D03*
%TO.N,TX_esp*%
X158400000Y-91000000D03*
X154161192Y-76762649D03*
%TO.N,Net-(U1-DIO0)*%
X145694429Y-88842987D03*
%TO.N,RST*%
X143850000Y-87450000D03*
%TO.N,unconnected-(J1-Pin_9-Pad9)*%
X149081192Y-76762649D03*
%TO.N,unconnected-(J1-Pin_10-Pad10)*%
X149081192Y-81812649D03*
%TO.N,unconnected-(J1-Pin_11-Pad11)*%
X146541192Y-76762649D03*
%TO.N,unconnected-(J1-Pin_6-Pad6)*%
X154161192Y-81812649D03*
%TD*%
D18*
%TO.N,GND*%
X155975844Y-103984402D02*
X151484429Y-99492987D01*
D19*
X141975844Y-104358868D02*
X141975844Y-104075844D01*
X153975844Y-89558868D02*
X153975844Y-91375844D01*
X153975844Y-91375844D02*
X154700000Y-92100000D01*
D18*
X155975844Y-104358868D02*
X155975844Y-103984402D01*
D19*
X141975844Y-104075844D02*
X141000000Y-103100000D01*
%TO.N,SDA_esp*%
X142000000Y-92000000D02*
X141975844Y-91975844D01*
X141975844Y-91975844D02*
X141975844Y-89558868D01*
%TO.N,RX_esp*%
X158451208Y-108008518D02*
X158451208Y-104951208D01*
X155790000Y-110669726D02*
X158451208Y-108008518D01*
%TO.N,SCK*%
X155900000Y-106400000D02*
X154900000Y-107400000D01*
X154900000Y-107400000D02*
X149800000Y-107400000D01*
X147975844Y-105575844D02*
X147975844Y-104358868D01*
X149800000Y-107400000D02*
X147975844Y-105575844D01*
%TO.N,MISO*%
X140000000Y-88400000D02*
X146541192Y-81858808D01*
X143975844Y-104358868D02*
X140000000Y-100383024D01*
X143975844Y-104358868D02*
X143975844Y-102624156D01*
X143975844Y-104875844D02*
X143975844Y-104358868D01*
X146541192Y-81858808D02*
X146541192Y-81812649D01*
X140000000Y-100383024D02*
X140000000Y-88400000D01*
X143975844Y-102624156D02*
X144000000Y-102600000D01*
%TO.N,MOSI*%
X140800000Y-97600000D02*
X140800000Y-88700000D01*
X148000000Y-82980841D02*
X148000000Y-80400000D01*
X145400000Y-84100000D02*
X146880841Y-84100000D01*
X145975844Y-102824156D02*
X146000000Y-102800000D01*
X146000000Y-102800000D02*
X140800000Y-97600000D01*
X145975844Y-104358868D02*
X145975844Y-102824156D01*
X150776844Y-77606997D02*
X151621192Y-76762649D01*
X148000000Y-80400000D02*
X151621192Y-76778808D01*
X151621192Y-76778808D02*
X151621192Y-76762649D01*
X146880841Y-84100000D02*
X148000000Y-82980841D01*
X140800000Y-88700000D02*
X145400000Y-84100000D01*
%TO.N,CS_LORA*%
X149174844Y-88274844D02*
X149174844Y-99678456D01*
X149174844Y-99678456D02*
X151975844Y-102479456D01*
X148200000Y-87300000D02*
X149174844Y-88274844D01*
X151975844Y-102479456D02*
X151975844Y-104358868D01*
%TO.N,3V3*%
X147975844Y-89075844D02*
X145000000Y-86100000D01*
X147975844Y-89558868D02*
X147975844Y-89075844D01*
%TO.N,SCL_esp*%
X143975844Y-91975844D02*
X143975844Y-89558868D01*
X144000000Y-92000000D02*
X143975844Y-91975844D01*
%TO.N,TX_esp*%
X157100000Y-92300000D02*
X158400000Y-91000000D01*
X153250000Y-110669726D02*
X157100000Y-106819726D01*
X157100000Y-106819726D02*
X157100000Y-92300000D01*
D18*
%TO.N,ANT*%
X156041976Y-89625000D02*
X155975844Y-89558868D01*
X160775000Y-89625000D02*
X156041976Y-89625000D01*
D19*
%TO.N,RST*%
X149975844Y-100975844D02*
X149975844Y-104358868D01*
X143089497Y-94089497D02*
X149975844Y-100975844D01*
X143850000Y-87450000D02*
X143089497Y-88210503D01*
X143089497Y-88210503D02*
X143089497Y-94089497D01*
%TD*%
%TA.AperFunction,Conductor*%
%TO.N,3V3*%
G36*
X148168883Y-89578553D02*
G01*
X148214638Y-89631357D01*
X148225844Y-89682868D01*
X148225844Y-91033868D01*
X148475344Y-91033868D01*
X148542383Y-91053553D01*
X148588138Y-91106357D01*
X148599344Y-91157868D01*
X148599344Y-98486102D01*
X148579659Y-98553141D01*
X148526855Y-98598896D01*
X148457697Y-98608840D01*
X148394141Y-98579815D01*
X148387663Y-98573783D01*
X143701316Y-93887436D01*
X143667831Y-93826113D01*
X143664997Y-93799755D01*
X143664997Y-92900640D01*
X143684682Y-92833601D01*
X143737486Y-92787846D01*
X143806644Y-92777902D01*
X143813171Y-92779019D01*
X143872531Y-92790827D01*
X143921156Y-92800500D01*
X143921158Y-92800500D01*
X144078844Y-92800500D01*
X144078845Y-92800499D01*
X144233497Y-92769737D01*
X144360577Y-92717099D01*
X144379172Y-92709397D01*
X144379172Y-92709396D01*
X144379179Y-92709394D01*
X144510289Y-92621789D01*
X144621789Y-92510289D01*
X144709394Y-92379179D01*
X144769737Y-92233497D01*
X144800500Y-92078842D01*
X144800500Y-91921158D01*
X144800500Y-91921155D01*
X144800499Y-91921153D01*
X144769738Y-91766510D01*
X144769737Y-91766503D01*
X144754290Y-91729211D01*
X144709397Y-91620827D01*
X144709390Y-91620814D01*
X144621789Y-91489711D01*
X144621786Y-91489707D01*
X144587663Y-91455584D01*
X144572959Y-91428656D01*
X144556367Y-91402838D01*
X144555475Y-91396637D01*
X144554178Y-91394261D01*
X144551344Y-91367903D01*
X144551344Y-91135307D01*
X144571029Y-91068268D01*
X144623833Y-91022513D01*
X144632012Y-91019125D01*
X144743170Y-90977666D01*
X144743170Y-90977665D01*
X144743175Y-90977664D01*
X144858390Y-90891414D01*
X144876577Y-90867118D01*
X144932510Y-90825247D01*
X145002202Y-90820263D01*
X145063525Y-90853748D01*
X145075111Y-90867119D01*
X145093298Y-90891414D01*
X145093299Y-90891415D01*
X145208508Y-90977661D01*
X145208515Y-90977665D01*
X145343361Y-91027959D01*
X145343360Y-91027959D01*
X145350288Y-91028703D01*
X145402971Y-91034368D01*
X146548716Y-91034367D01*
X146608327Y-91027959D01*
X146743175Y-90977664D01*
X146858390Y-90891414D01*
X146876889Y-90866701D01*
X146932822Y-90824830D01*
X147002514Y-90819846D01*
X147063837Y-90853330D01*
X147075423Y-90866701D01*
X147093657Y-90891059D01*
X147208750Y-90977218D01*
X147208757Y-90977222D01*
X147343464Y-91027464D01*
X147343471Y-91027466D01*
X147402999Y-91033867D01*
X147403016Y-91033868D01*
X147725844Y-91033868D01*
X147725844Y-89682868D01*
X147745529Y-89615829D01*
X147798333Y-89570074D01*
X147849844Y-89558868D01*
X148101844Y-89558868D01*
X148168883Y-89578553D01*
G37*
%TD.AperFunction*%
%TA.AperFunction,Conductor*%
G36*
X164294523Y-72700553D02*
G01*
X164300594Y-72700729D01*
X164434637Y-72704635D01*
X164442153Y-72705084D01*
X164561811Y-72715896D01*
X164569680Y-72716863D01*
X164678845Y-72733840D01*
X164687009Y-72735391D01*
X164785790Y-72757616D01*
X164794156Y-72759808D01*
X164884933Y-72787003D01*
X164893363Y-72789862D01*
X164964349Y-72816829D01*
X164976873Y-72822399D01*
X165132358Y-72902135D01*
X165148373Y-72911948D01*
X165273889Y-73002622D01*
X165288200Y-73014707D01*
X165321640Y-73047581D01*
X165399836Y-73124454D01*
X165411800Y-73138075D01*
X165512553Y-73271286D01*
X165521912Y-73285618D01*
X165611629Y-73446237D01*
X165618465Y-73460558D01*
X165694205Y-73649454D01*
X165698824Y-73663273D01*
X165755727Y-73873982D01*
X165758513Y-73887072D01*
X165791316Y-74095937D01*
X165792566Y-74107280D01*
X165799248Y-74212002D01*
X165799500Y-74219898D01*
X165799500Y-112180100D01*
X165799248Y-112187996D01*
X165792566Y-112292718D01*
X165791316Y-112304061D01*
X165758513Y-112512926D01*
X165755727Y-112526016D01*
X165698824Y-112736725D01*
X165694205Y-112750544D01*
X165618465Y-112939440D01*
X165611629Y-112953761D01*
X165521912Y-113114380D01*
X165512553Y-113128712D01*
X165411800Y-113261923D01*
X165399832Y-113275548D01*
X165288200Y-113385291D01*
X165273884Y-113397380D01*
X165148384Y-113488043D01*
X165132354Y-113497865D01*
X164976880Y-113577596D01*
X164964331Y-113583177D01*
X164893383Y-113610129D01*
X164884933Y-113612995D01*
X164794156Y-113640190D01*
X164785790Y-113642382D01*
X164687009Y-113664607D01*
X164678845Y-113666158D01*
X164569693Y-113683133D01*
X164561798Y-113684103D01*
X164442170Y-113694913D01*
X164434623Y-113695363D01*
X164294523Y-113699447D01*
X164290910Y-113699500D01*
X136719899Y-113699500D01*
X136712005Y-113699248D01*
X136700457Y-113698511D01*
X136607280Y-113692566D01*
X136595937Y-113691316D01*
X136387072Y-113658513D01*
X136373982Y-113655727D01*
X136163273Y-113598824D01*
X136149454Y-113594205D01*
X135960558Y-113518465D01*
X135946237Y-113511629D01*
X135785618Y-113421912D01*
X135771286Y-113412553D01*
X135670771Y-113336529D01*
X135638071Y-113311796D01*
X135624454Y-113299836D01*
X135514707Y-113188200D01*
X135502622Y-113173889D01*
X135411948Y-113048373D01*
X135402133Y-113032354D01*
X135384657Y-112998277D01*
X135322399Y-112876873D01*
X135316829Y-112864349D01*
X135289862Y-112793363D01*
X135287003Y-112784933D01*
X135259808Y-112694156D01*
X135257616Y-112685790D01*
X135235391Y-112587009D01*
X135233840Y-112578845D01*
X135225624Y-112526016D01*
X135216863Y-112469680D01*
X135215895Y-112461798D01*
X135205084Y-112342153D01*
X135204635Y-112334621D01*
X135204571Y-112332430D01*
X135200553Y-112194522D01*
X135200500Y-112190911D01*
X135200500Y-88324234D01*
X139424500Y-88324234D01*
X139424500Y-100458789D01*
X139463719Y-100605160D01*
X139501602Y-100670774D01*
X139539485Y-100736389D01*
X139539487Y-100736391D01*
X140908453Y-102105357D01*
X140941938Y-102166680D01*
X140936954Y-102236372D01*
X140895082Y-102292305D01*
X140844964Y-102314655D01*
X140766508Y-102330261D01*
X140766498Y-102330264D01*
X140620827Y-102390602D01*
X140620814Y-102390609D01*
X140489711Y-102478210D01*
X140489707Y-102478213D01*
X140378213Y-102589707D01*
X140378210Y-102589711D01*
X140290609Y-102720814D01*
X140290602Y-102720827D01*
X140230264Y-102866498D01*
X140230261Y-102866510D01*
X140199500Y-103021153D01*
X140199500Y-103178846D01*
X140230261Y-103333489D01*
X140230264Y-103333501D01*
X140290602Y-103479172D01*
X140290609Y-103479185D01*
X140378210Y-103610288D01*
X140378213Y-103610292D01*
X140489707Y-103721786D01*
X140489711Y-103721789D01*
X140620814Y-103809390D01*
X140620827Y-103809397D01*
X140708230Y-103845599D01*
X140766503Y-103869737D01*
X140850538Y-103886452D01*
X140912446Y-103918836D01*
X140947020Y-103979552D01*
X140950344Y-104008069D01*
X140950344Y-105381738D01*
X140950345Y-105381744D01*
X140956752Y-105441351D01*
X141007046Y-105576196D01*
X141007050Y-105576203D01*
X141093296Y-105691412D01*
X141093299Y-105691415D01*
X141208508Y-105777661D01*
X141208515Y-105777665D01*
X141343361Y-105827959D01*
X141343360Y-105827959D01*
X141350288Y-105828703D01*
X141402971Y-105834368D01*
X142548716Y-105834367D01*
X142608327Y-105827959D01*
X142743175Y-105777664D01*
X142858390Y-105691414D01*
X142876577Y-105667118D01*
X142932510Y-105625247D01*
X143002202Y-105620263D01*
X143063525Y-105653748D01*
X143075111Y-105667119D01*
X143093298Y-105691414D01*
X143093299Y-105691415D01*
X143208508Y-105777661D01*
X143208515Y-105777665D01*
X143343361Y-105827959D01*
X143343360Y-105827959D01*
X143350288Y-105828703D01*
X143402971Y-105834368D01*
X144548716Y-105834367D01*
X144608327Y-105827959D01*
X144743175Y-105777664D01*
X144858390Y-105691414D01*
X144876577Y-105667118D01*
X144932510Y-105625247D01*
X145002202Y-105620263D01*
X145063525Y-105653748D01*
X145075111Y-105667119D01*
X145093298Y-105691414D01*
X145093299Y-105691415D01*
X145208508Y-105777661D01*
X145208515Y-105777665D01*
X145343361Y-105827959D01*
X145343360Y-105827959D01*
X145350288Y-105828703D01*
X145402971Y-105834368D01*
X146548716Y-105834367D01*
X146608327Y-105827959D01*
X146743175Y-105777664D01*
X146858390Y-105691414D01*
X146876577Y-105667118D01*
X146932510Y-105625247D01*
X147002202Y-105620263D01*
X147063525Y-105653748D01*
X147075111Y-105667119D01*
X147093298Y-105691414D01*
X147093299Y-105691415D01*
X147208508Y-105777661D01*
X147208515Y-105777665D01*
X147343361Y-105827959D01*
X147343359Y-105827959D01*
X147401751Y-105834237D01*
X147466302Y-105860975D01*
X147495882Y-105895526D01*
X147515329Y-105929209D01*
X147515330Y-105929210D01*
X147515331Y-105929211D01*
X149335144Y-107749023D01*
X149335154Y-107749034D01*
X149339484Y-107753364D01*
X149339485Y-107753365D01*
X149446635Y-107860515D01*
X149571753Y-107932752D01*
X149577865Y-107936281D01*
X149724233Y-107975500D01*
X149724234Y-107975500D01*
X149724235Y-107975500D01*
X154830983Y-107975500D01*
X154898022Y-107995185D01*
X154943777Y-108047989D01*
X154953721Y-108117147D01*
X154924696Y-108180703D01*
X154918664Y-108187181D01*
X153761207Y-109344637D01*
X153699884Y-109378122D01*
X153635209Y-109374887D01*
X153566246Y-109352480D01*
X153408776Y-109327539D01*
X153356287Y-109319226D01*
X153143713Y-109319226D01*
X153095042Y-109326934D01*
X152933760Y-109352479D01*
X152731585Y-109418170D01*
X152542179Y-109514677D01*
X152370213Y-109639616D01*
X152219890Y-109789939D01*
X152094949Y-109961908D01*
X152090484Y-109970672D01*
X152042509Y-110021468D01*
X151974688Y-110038262D01*
X151908553Y-110015724D01*
X151869516Y-109970672D01*
X151865050Y-109961908D01*
X151740109Y-109789939D01*
X151589786Y-109639616D01*
X151417820Y-109514677D01*
X151228414Y-109418170D01*
X151228413Y-109418169D01*
X151228412Y-109418169D01*
X151026243Y-109352480D01*
X151026241Y-109352479D01*
X151026240Y-109352479D01*
X150864957Y-109326934D01*
X150816287Y-109319226D01*
X150603713Y-109319226D01*
X150555042Y-109326934D01*
X150393760Y-109352479D01*
X150191585Y-109418170D01*
X150002179Y-109514677D01*
X149830213Y-109639616D01*
X149679890Y-109789939D01*
X149554949Y-109961908D01*
X149550484Y-109970672D01*
X149502509Y-110021468D01*
X149434688Y-110038262D01*
X149368553Y-110015724D01*
X149329516Y-109970672D01*
X149325050Y-109961908D01*
X149200109Y-109789939D01*
X149049786Y-109639616D01*
X148877820Y-109514677D01*
X148688414Y-109418170D01*
X148688413Y-109418169D01*
X148688412Y-109418169D01*
X148486243Y-109352480D01*
X148486241Y-109352479D01*
X148486240Y-109352479D01*
X148324957Y-109326934D01*
X148276287Y-109319226D01*
X148063713Y-109319226D01*
X148015042Y-109326934D01*
X147853760Y-109352479D01*
X147651585Y-109418170D01*
X147462179Y-109514677D01*
X147290213Y-109639616D01*
X147139890Y-109789939D01*
X147014949Y-109961908D01*
X147010484Y-109970672D01*
X146962509Y-110021468D01*
X146894688Y-110038262D01*
X146828553Y-110015724D01*
X146789516Y-109970672D01*
X146785050Y-109961908D01*
X146660109Y-109789939D01*
X146509786Y-109639616D01*
X146337820Y-109514677D01*
X146148414Y-109418170D01*
X146148413Y-109418169D01*
X146148412Y-109418169D01*
X145946243Y-109352480D01*
X145946241Y-109352479D01*
X145946240Y-109352479D01*
X145784957Y-109326934D01*
X145736287Y-109319226D01*
X145523713Y-109319226D01*
X145475042Y-109326934D01*
X145313760Y-109352479D01*
X145111585Y-109418170D01*
X144922179Y-109514677D01*
X144750213Y-109639616D01*
X144599890Y-109789939D01*
X144474951Y-109961905D01*
X144378444Y-110151311D01*
X144312753Y-110353486D01*
X144279500Y-110563439D01*
X144279500Y-110776012D01*
X144312753Y-110985965D01*
X144378444Y-111188140D01*
X144474951Y-111377546D01*
X144599890Y-111549512D01*
X144750213Y-111699835D01*
X144922179Y-111824774D01*
X144922181Y-111824775D01*
X144922184Y-111824777D01*
X145111588Y-111921283D01*
X145313757Y-111986972D01*
X145523713Y-112020226D01*
X145523714Y-112020226D01*
X145736286Y-112020226D01*
X145736287Y-112020226D01*
X145946243Y-111986972D01*
X146148412Y-111921283D01*
X146337816Y-111824777D01*
X146424138Y-111762061D01*
X146509786Y-111699835D01*
X146509788Y-111699832D01*
X146509792Y-111699830D01*
X146660104Y-111549518D01*
X146660106Y-111549514D01*
X146660109Y-111549512D01*
X146785048Y-111377546D01*
X146785047Y-111377546D01*
X146785051Y-111377542D01*
X146789514Y-111368780D01*
X146837488Y-111317985D01*
X146905308Y-111301189D01*
X146971444Y-111323725D01*
X147010486Y-111368782D01*
X147014951Y-111377546D01*
X147139890Y-111549512D01*
X147290213Y-111699835D01*
X147462179Y-111824774D01*
X147462181Y-111824775D01*
X147462184Y-111824777D01*
X147651588Y-111921283D01*
X147853757Y-111986972D01*
X148063713Y-112020226D01*
X148063714Y-112020226D01*
X148276286Y-112020226D01*
X148276287Y-112020226D01*
X148486243Y-111986972D01*
X148688412Y-111921283D01*
X148877816Y-111824777D01*
X148964138Y-111762061D01*
X149049786Y-111699835D01*
X149049788Y-111699832D01*
X149049792Y-111699830D01*
X149200104Y-111549518D01*
X149200106Y-111549514D01*
X149200109Y-111549512D01*
X149325048Y-111377546D01*
X149325047Y-111377546D01*
X149325051Y-111377542D01*
X149329514Y-111368780D01*
X149377488Y-111317985D01*
X149445308Y-111301189D01*
X149511444Y-111323725D01*
X149550486Y-111368782D01*
X149554951Y-111377546D01*
X149679890Y-111549512D01*
X149830213Y-111699835D01*
X150002179Y-111824774D01*
X150002181Y-111824775D01*
X150002184Y-111824777D01*
X150191588Y-111921283D01*
X150393757Y-111986972D01*
X150603713Y-112020226D01*
X150603714Y-112020226D01*
X150816286Y-112020226D01*
X150816287Y-112020226D01*
X151026243Y-111986972D01*
X151228412Y-111921283D01*
X151417816Y-111824777D01*
X151504138Y-111762061D01*
X151589786Y-111699835D01*
X151589788Y-111699832D01*
X151589792Y-111699830D01*
X151740104Y-111549518D01*
X151740106Y-111549514D01*
X151740109Y-111549512D01*
X151865048Y-111377546D01*
X151865047Y-111377546D01*
X151865051Y-111377542D01*
X151869514Y-111368780D01*
X151917488Y-111317985D01*
X151985308Y-111301189D01*
X152051444Y-111323725D01*
X152090486Y-111368782D01*
X152094951Y-111377546D01*
X152219890Y-111549512D01*
X152370213Y-111699835D01*
X152542179Y-111824774D01*
X152542181Y-111824775D01*
X152542184Y-111824777D01*
X152731588Y-111921283D01*
X152933757Y-111986972D01*
X153143713Y-112020226D01*
X153143714Y-112020226D01*
X153356286Y-112020226D01*
X153356287Y-112020226D01*
X153566243Y-111986972D01*
X153768412Y-111921283D01*
X153957816Y-111824777D01*
X154044138Y-111762061D01*
X154129786Y-111699835D01*
X154129788Y-111699832D01*
X154129792Y-111699830D01*
X154280104Y-111549518D01*
X154280106Y-111549514D01*
X154280109Y-111549512D01*
X154405048Y-111377546D01*
X154405047Y-111377546D01*
X154405051Y-111377542D01*
X154409514Y-111368780D01*
X154457488Y-111317985D01*
X154525308Y-111301189D01*
X154591444Y-111323725D01*
X154630486Y-111368782D01*
X154634951Y-111377546D01*
X154759890Y-111549512D01*
X154910213Y-111699835D01*
X155082179Y-111824774D01*
X155082181Y-111824775D01*
X155082184Y-111824777D01*
X155271588Y-111921283D01*
X155473757Y-111986972D01*
X155683713Y-112020226D01*
X155683714Y-112020226D01*
X155896286Y-112020226D01*
X155896287Y-112020226D01*
X156106243Y-111986972D01*
X156308412Y-111921283D01*
X156497816Y-111824777D01*
X156669792Y-111699830D01*
X156783329Y-111586292D01*
X156844648Y-111552810D01*
X156914340Y-111557794D01*
X156970274Y-111599665D01*
X156987189Y-111630643D01*
X157036202Y-111762054D01*
X157036206Y-111762061D01*
X157122452Y-111877270D01*
X157122455Y-111877273D01*
X157237664Y-111963519D01*
X157237671Y-111963523D01*
X157372517Y-112013817D01*
X157372516Y-112013817D01*
X157379444Y-112014561D01*
X157432127Y-112020226D01*
X159227872Y-112020225D01*
X159287483Y-112013817D01*
X159422331Y-111963522D01*
X159537546Y-111877272D01*
X159623796Y-111762057D01*
X159674091Y-111627209D01*
X159680500Y-111567599D01*
X159680499Y-109771854D01*
X159674091Y-109712243D01*
X159623796Y-109577395D01*
X159623795Y-109577394D01*
X159623793Y-109577390D01*
X159537547Y-109462181D01*
X159537544Y-109462178D01*
X159422335Y-109375932D01*
X159422328Y-109375928D01*
X159287482Y-109325634D01*
X159287483Y-109325634D01*
X159227883Y-109319227D01*
X159227881Y-109319226D01*
X159227873Y-109319226D01*
X159227865Y-109319226D01*
X158253741Y-109319226D01*
X158186702Y-109299541D01*
X158140947Y-109246737D01*
X158131003Y-109177579D01*
X158160028Y-109114023D01*
X158166060Y-109107545D01*
X158911722Y-108361884D01*
X158987489Y-108230653D01*
X159026708Y-108084285D01*
X159026708Y-107932752D01*
X159026708Y-105599986D01*
X161000001Y-105599986D01*
X161010494Y-105702697D01*
X161065641Y-105869119D01*
X161065643Y-105869124D01*
X161157684Y-106018345D01*
X161281654Y-106142315D01*
X161430875Y-106234356D01*
X161430880Y-106234358D01*
X161597302Y-106289505D01*
X161597309Y-106289506D01*
X161700019Y-106299999D01*
X162049999Y-106299999D01*
X162550000Y-106299999D01*
X162899972Y-106299999D01*
X162899986Y-106299998D01*
X163002697Y-106289505D01*
X163169119Y-106234358D01*
X163169124Y-106234356D01*
X163318345Y-106142315D01*
X163442315Y-106018345D01*
X163534356Y-105869124D01*
X163534358Y-105869119D01*
X163589505Y-105702697D01*
X163589506Y-105702690D01*
X163599999Y-105599986D01*
X163600000Y-105599973D01*
X163600000Y-104750000D01*
X162550000Y-104750000D01*
X162550000Y-106299999D01*
X162049999Y-106299999D01*
X162050000Y-106299998D01*
X162050000Y-104750000D01*
X161000001Y-104750000D01*
X161000001Y-105599986D01*
X159026708Y-105599986D01*
X159026708Y-105559148D01*
X159046393Y-105492109D01*
X159063030Y-105471464D01*
X159072995Y-105461499D01*
X159072997Y-105461497D01*
X159160602Y-105330387D01*
X159220945Y-105184705D01*
X159251708Y-105030050D01*
X159251708Y-104872366D01*
X159251708Y-104872363D01*
X159251707Y-104872361D01*
X159221964Y-104722829D01*
X159221964Y-104722828D01*
X159220947Y-104717720D01*
X159220946Y-104717717D01*
X159220945Y-104717711D01*
X159220943Y-104717706D01*
X159160605Y-104572035D01*
X159160598Y-104572022D01*
X159072997Y-104440919D01*
X159072994Y-104440915D01*
X158961500Y-104329421D01*
X158961496Y-104329418D01*
X158830393Y-104241817D01*
X158830380Y-104241810D01*
X158684709Y-104181472D01*
X158684697Y-104181469D01*
X158530053Y-104150708D01*
X158530050Y-104150708D01*
X158372366Y-104150708D01*
X158372363Y-104150708D01*
X158217718Y-104181469D01*
X158217706Y-104181472D01*
X158072035Y-104241810D01*
X158072022Y-104241817D01*
X157940919Y-104329418D01*
X157940915Y-104329421D01*
X157887181Y-104383156D01*
X157825858Y-104416641D01*
X157756166Y-104411657D01*
X157700233Y-104369785D01*
X157675816Y-104304321D01*
X157675500Y-104295475D01*
X157675500Y-99799983D01*
X160999500Y-99799983D01*
X160999500Y-102000001D01*
X160999501Y-102000018D01*
X161010000Y-102102796D01*
X161010001Y-102102799D01*
X161065185Y-102269331D01*
X161065187Y-102269336D01*
X161083792Y-102299500D01*
X161148056Y-102403689D01*
X161157289Y-102418657D01*
X161281344Y-102542712D01*
X161365718Y-102594754D01*
X161412443Y-102646702D01*
X161423666Y-102715664D01*
X161395822Y-102779747D01*
X161365720Y-102805831D01*
X161281656Y-102857682D01*
X161157684Y-102981654D01*
X161065643Y-103130875D01*
X161065641Y-103130880D01*
X161010494Y-103297302D01*
X161010493Y-103297309D01*
X161000000Y-103400013D01*
X161000000Y-104250000D01*
X163599999Y-104250000D01*
X163599999Y-103400028D01*
X163599998Y-103400013D01*
X163589505Y-103297302D01*
X163534358Y-103130880D01*
X163534356Y-103130875D01*
X163442315Y-102981654D01*
X163318344Y-102857683D01*
X163318340Y-102857680D01*
X163234280Y-102805831D01*
X163187555Y-102753883D01*
X163176334Y-102684921D01*
X163204177Y-102620839D01*
X163234278Y-102594756D01*
X163318656Y-102542712D01*
X163442712Y-102418656D01*
X163534814Y-102269334D01*
X163589999Y-102102797D01*
X163600500Y-102000009D01*
X163600499Y-99799992D01*
X163589999Y-99697203D01*
X163534814Y-99530666D01*
X163442712Y-99381344D01*
X163318656Y-99257288D01*
X163169334Y-99165186D01*
X163002797Y-99110001D01*
X163002795Y-99110000D01*
X162900010Y-99099500D01*
X161699998Y-99099500D01*
X161699981Y-99099501D01*
X161597203Y-99110000D01*
X161597200Y-99110001D01*
X161430668Y-99165185D01*
X161430663Y-99165187D01*
X161281342Y-99257289D01*
X161157289Y-99381342D01*
X161065187Y-99530663D01*
X161065185Y-99530668D01*
X161037349Y-99614670D01*
X161010001Y-99697203D01*
X161010001Y-99697204D01*
X161010000Y-99697204D01*
X160999500Y-99799983D01*
X157675500Y-99799983D01*
X157675500Y-92589742D01*
X157695185Y-92522703D01*
X157711819Y-92502061D01*
X158377061Y-91836819D01*
X158438384Y-91803334D01*
X158464742Y-91800500D01*
X158478844Y-91800500D01*
X158478845Y-91800499D01*
X158633497Y-91769737D01*
X158751592Y-91720821D01*
X158779172Y-91709397D01*
X158779172Y-91709396D01*
X158779179Y-91709394D01*
X158910289Y-91621789D01*
X159021789Y-91510289D01*
X159109394Y-91379179D01*
X159169737Y-91233497D01*
X159200500Y-91078842D01*
X159200500Y-90921158D01*
X159200500Y-90921155D01*
X159200499Y-90921153D01*
X159194584Y-90891415D01*
X159169737Y-90766503D01*
X159162694Y-90749499D01*
X159140929Y-90696952D01*
X159133460Y-90627482D01*
X159164736Y-90565003D01*
X159224825Y-90529352D01*
X159255490Y-90525500D01*
X159908561Y-90525500D01*
X159975600Y-90545185D01*
X159982872Y-90550233D01*
X160007668Y-90568795D01*
X160007671Y-90568797D01*
X160042376Y-90581741D01*
X160142517Y-90619091D01*
X160202127Y-90625500D01*
X160575500Y-90625499D01*
X160642539Y-90645183D01*
X160688294Y-90697987D01*
X160699500Y-90749499D01*
X160699500Y-91672870D01*
X160699501Y-91672876D01*
X160705908Y-91732483D01*
X160756202Y-91867328D01*
X160756206Y-91867335D01*
X160842452Y-91982544D01*
X160842455Y-91982547D01*
X160957664Y-92068793D01*
X160957671Y-92068797D01*
X161092517Y-92119091D01*
X161092516Y-92119091D01*
X161099444Y-92119835D01*
X161152127Y-92125500D01*
X163447872Y-92125499D01*
X163507483Y-92119091D01*
X163642331Y-92068796D01*
X163757546Y-91982546D01*
X163843796Y-91867331D01*
X163894091Y-91732483D01*
X163900500Y-91672873D01*
X163900499Y-90749498D01*
X163920183Y-90682460D01*
X163972987Y-90636705D01*
X164024499Y-90625499D01*
X164397871Y-90625499D01*
X164397872Y-90625499D01*
X164457483Y-90619091D01*
X164592331Y-90568796D01*
X164707546Y-90482546D01*
X164793796Y-90367331D01*
X164844091Y-90232483D01*
X164850500Y-90172873D01*
X164850499Y-89077128D01*
X164844091Y-89017517D01*
X164793796Y-88882669D01*
X164793795Y-88882668D01*
X164793793Y-88882664D01*
X164707547Y-88767455D01*
X164707544Y-88767452D01*
X164592335Y-88681206D01*
X164592328Y-88681202D01*
X164457482Y-88630908D01*
X164457483Y-88630908D01*
X164397883Y-88624501D01*
X164397881Y-88624500D01*
X164397873Y-88624500D01*
X164397865Y-88624500D01*
X164024499Y-88624500D01*
X163957460Y-88604815D01*
X163911705Y-88552011D01*
X163900499Y-88500500D01*
X163900499Y-87577129D01*
X163900498Y-87577123D01*
X163900497Y-87577116D01*
X163894091Y-87517517D01*
X163863918Y-87436620D01*
X163843797Y-87382671D01*
X163843793Y-87382664D01*
X163757547Y-87267455D01*
X163757544Y-87267452D01*
X163642335Y-87181206D01*
X163642328Y-87181202D01*
X163507482Y-87130908D01*
X163507483Y-87130908D01*
X163447883Y-87124501D01*
X163447881Y-87124500D01*
X163447873Y-87124500D01*
X163447864Y-87124500D01*
X161152129Y-87124500D01*
X161152123Y-87124501D01*
X161092516Y-87130908D01*
X160957671Y-87181202D01*
X160957664Y-87181206D01*
X160842455Y-87267452D01*
X160842452Y-87267455D01*
X160756206Y-87382664D01*
X160756202Y-87382671D01*
X160705908Y-87517517D01*
X160704190Y-87533501D01*
X160699501Y-87577123D01*
X160699500Y-87577135D01*
X160699500Y-88500500D01*
X160679815Y-88567539D01*
X160627011Y-88613294D01*
X160575500Y-88624500D01*
X160202130Y-88624500D01*
X160202123Y-88624501D01*
X160142516Y-88630908D01*
X160007671Y-88681202D01*
X160007668Y-88681204D01*
X159982872Y-88699767D01*
X159917408Y-88724184D01*
X159908561Y-88724500D01*
X157125343Y-88724500D01*
X157058304Y-88704815D01*
X157012549Y-88652011D01*
X157001343Y-88600500D01*
X157001343Y-88535997D01*
X157001342Y-88535991D01*
X156994935Y-88476384D01*
X156944641Y-88341539D01*
X156944637Y-88341532D01*
X156858391Y-88226323D01*
X156858388Y-88226320D01*
X156743179Y-88140074D01*
X156743172Y-88140070D01*
X156608326Y-88089776D01*
X156608327Y-88089776D01*
X156548727Y-88083369D01*
X156548725Y-88083368D01*
X156548717Y-88083368D01*
X156548708Y-88083368D01*
X155402973Y-88083368D01*
X155402967Y-88083369D01*
X155343360Y-88089776D01*
X155208515Y-88140070D01*
X155208508Y-88140074D01*
X155093299Y-88226320D01*
X155075110Y-88250618D01*
X155019176Y-88292488D01*
X154949484Y-88297472D01*
X154888161Y-88263986D01*
X154876578Y-88250618D01*
X154876447Y-88250443D01*
X154858390Y-88226322D01*
X154858388Y-88226321D01*
X154858388Y-88226320D01*
X154743179Y-88140074D01*
X154743172Y-88140070D01*
X154608326Y-88089776D01*
X154608327Y-88089776D01*
X154548727Y-88083369D01*
X154548725Y-88083368D01*
X154548717Y-88083368D01*
X154548708Y-88083368D01*
X153402973Y-88083368D01*
X153402967Y-88083369D01*
X153343360Y-88089776D01*
X153208515Y-88140070D01*
X153208508Y-88140074D01*
X153093299Y-88226320D01*
X153075110Y-88250618D01*
X153019176Y-88292488D01*
X152949484Y-88297472D01*
X152888161Y-88263986D01*
X152876578Y-88250618D01*
X152876447Y-88250443D01*
X152858390Y-88226322D01*
X152858388Y-88226321D01*
X152858388Y-88226320D01*
X152743179Y-88140074D01*
X152743172Y-88140070D01*
X152608326Y-88089776D01*
X152608327Y-88089776D01*
X152548727Y-88083369D01*
X152548725Y-88083368D01*
X152548717Y-88083368D01*
X152548708Y-88083368D01*
X151402973Y-88083368D01*
X151402967Y-88083369D01*
X151343360Y-88089776D01*
X151208515Y-88140070D01*
X151208508Y-88140074D01*
X151093299Y-88226320D01*
X151075110Y-88250618D01*
X151019176Y-88292488D01*
X150949484Y-88297472D01*
X150888161Y-88263986D01*
X150876578Y-88250618D01*
X150876447Y-88250443D01*
X150858390Y-88226322D01*
X150858388Y-88226321D01*
X150858388Y-88226320D01*
X150743179Y-88140074D01*
X150743172Y-88140070D01*
X150608326Y-88089776D01*
X150608327Y-88089776D01*
X150548727Y-88083369D01*
X150548725Y-88083368D01*
X150548717Y-88083368D01*
X150548709Y-88083368D01*
X149800418Y-88083368D01*
X149733379Y-88063683D01*
X149693031Y-88021369D01*
X149682062Y-88002371D01*
X149635359Y-87921479D01*
X149528209Y-87814329D01*
X149036819Y-87322939D01*
X149003334Y-87261616D01*
X149000500Y-87235258D01*
X149000500Y-87221155D01*
X149000499Y-87221153D01*
X148992553Y-87181206D01*
X148969737Y-87066503D01*
X148969735Y-87066498D01*
X148909397Y-86920827D01*
X148909390Y-86920814D01*
X148821789Y-86789711D01*
X148821786Y-86789707D01*
X148710292Y-86678213D01*
X148710288Y-86678210D01*
X148579185Y-86590609D01*
X148579172Y-86590602D01*
X148433501Y-86530264D01*
X148433489Y-86530261D01*
X148278845Y-86499500D01*
X148278842Y-86499500D01*
X148121158Y-86499500D01*
X148121155Y-86499500D01*
X147966510Y-86530261D01*
X147966498Y-86530264D01*
X147820827Y-86590602D01*
X147820814Y-86590609D01*
X147689711Y-86678210D01*
X147689707Y-86678213D01*
X147578213Y-86789707D01*
X147578210Y-86789711D01*
X147490609Y-86920814D01*
X147490602Y-86920827D01*
X147430264Y-87066498D01*
X147430261Y-87066510D01*
X147399500Y-87221153D01*
X147399500Y-87378846D01*
X147430261Y-87533489D01*
X147430264Y-87533501D01*
X147490602Y-87679172D01*
X147490609Y-87679185D01*
X147578210Y-87810288D01*
X147578213Y-87810292D01*
X147640108Y-87872187D01*
X147673593Y-87933510D01*
X147668609Y-88003202D01*
X147626737Y-88059135D01*
X147561273Y-88083552D01*
X147552427Y-88083868D01*
X147402999Y-88083868D01*
X147343471Y-88090269D01*
X147343464Y-88090271D01*
X147208757Y-88140513D01*
X147208750Y-88140517D01*
X147093656Y-88226677D01*
X147075422Y-88251035D01*
X147019488Y-88292905D01*
X146949796Y-88297889D01*
X146888473Y-88264403D01*
X146876890Y-88251035D01*
X146876578Y-88250618D01*
X146858390Y-88226322D01*
X146858388Y-88226321D01*
X146858388Y-88226320D01*
X146743179Y-88140074D01*
X146743172Y-88140070D01*
X146608326Y-88089776D01*
X146608327Y-88089776D01*
X146548727Y-88083369D01*
X146548725Y-88083368D01*
X146548717Y-88083368D01*
X146548709Y-88083368D01*
X145977019Y-88083368D01*
X145933827Y-88074777D01*
X145933755Y-88075018D01*
X145931315Y-88074277D01*
X145929571Y-88073931D01*
X145927927Y-88073250D01*
X145927922Y-88073248D01*
X145773274Y-88042487D01*
X145773271Y-88042487D01*
X145615587Y-88042487D01*
X145615585Y-88042487D01*
X145460933Y-88073249D01*
X145460925Y-88073251D01*
X145459276Y-88073935D01*
X145457524Y-88074283D01*
X145455099Y-88075019D01*
X145455026Y-88074780D01*
X145411847Y-88083368D01*
X145402988Y-88083368D01*
X145402972Y-88083369D01*
X145343360Y-88089776D01*
X145208515Y-88140070D01*
X145208508Y-88140074D01*
X145093299Y-88226320D01*
X145075110Y-88250618D01*
X145019176Y-88292488D01*
X144949484Y-88297472D01*
X144888161Y-88263986D01*
X144876578Y-88250618D01*
X144876447Y-88250443D01*
X144858390Y-88226322D01*
X144858388Y-88226321D01*
X144858388Y-88226320D01*
X144743179Y-88140074D01*
X144743172Y-88140070D01*
X144608326Y-88089776D01*
X144608327Y-88089776D01*
X144603846Y-88089295D01*
X144539295Y-88062557D01*
X144499447Y-88005164D01*
X144496954Y-87935339D01*
X144514001Y-87897114D01*
X144559389Y-87829187D01*
X144559390Y-87829184D01*
X144559394Y-87829179D01*
X144619737Y-87683497D01*
X144650500Y-87528842D01*
X144650500Y-87371158D01*
X144650500Y-87371155D01*
X144650499Y-87371153D01*
X144619737Y-87216503D01*
X144581629Y-87124501D01*
X144559397Y-87070827D01*
X144559390Y-87070814D01*
X144471789Y-86939711D01*
X144471786Y-86939707D01*
X144360292Y-86828213D01*
X144360288Y-86828210D01*
X144229185Y-86740609D01*
X144229172Y-86740602D01*
X144083501Y-86680264D01*
X144083491Y-86680261D01*
X143935785Y-86650880D01*
X143873874Y-86618495D01*
X143839300Y-86557779D01*
X143843041Y-86488009D01*
X143872294Y-86441585D01*
X145602061Y-84711819D01*
X145663384Y-84678334D01*
X145689742Y-84675500D01*
X146956605Y-84675500D01*
X146956607Y-84675500D01*
X147102976Y-84636281D01*
X147234206Y-84560515D01*
X148048906Y-83745813D01*
X148110227Y-83712330D01*
X148179918Y-83717314D01*
X148216055Y-83740538D01*
X148216547Y-83739881D01*
X148338856Y-83831442D01*
X148338863Y-83831446D01*
X148473709Y-83881740D01*
X148473708Y-83881740D01*
X148480636Y-83882484D01*
X148533319Y-83888149D01*
X149629064Y-83888148D01*
X149688675Y-83881740D01*
X149823523Y-83831445D01*
X149938738Y-83745195D01*
X150024988Y-83629980D01*
X150075283Y-83495132D01*
X150081692Y-83435522D01*
X150081691Y-80189784D01*
X150620692Y-80189784D01*
X150620692Y-83435519D01*
X150620693Y-83435525D01*
X150627100Y-83495132D01*
X150677394Y-83629977D01*
X150677398Y-83629984D01*
X150763644Y-83745193D01*
X150763647Y-83745196D01*
X150878856Y-83831442D01*
X150878863Y-83831446D01*
X151013709Y-83881740D01*
X151013708Y-83881740D01*
X151020636Y-83882484D01*
X151073319Y-83888149D01*
X152169064Y-83888148D01*
X152228675Y-83881740D01*
X152363523Y-83831445D01*
X152478738Y-83745195D01*
X152564988Y-83629980D01*
X152615283Y-83495132D01*
X152621692Y-83435522D01*
X152621691Y-80189784D01*
X153160692Y-80189784D01*
X153160692Y-83435519D01*
X153160693Y-83435525D01*
X153167100Y-83495132D01*
X153217394Y-83629977D01*
X153217398Y-83629984D01*
X153303644Y-83745193D01*
X153303647Y-83745196D01*
X153418856Y-83831442D01*
X153418863Y-83831446D01*
X153553709Y-83881740D01*
X153553708Y-83881740D01*
X153560636Y-83882484D01*
X153613319Y-83888149D01*
X154709064Y-83888148D01*
X154768675Y-83881740D01*
X154903523Y-83831445D01*
X155018738Y-83745195D01*
X155104988Y-83629980D01*
X155155283Y-83495132D01*
X155161692Y-83435522D01*
X155161691Y-80189784D01*
X155700692Y-80189784D01*
X155700692Y-83435519D01*
X155700693Y-83435525D01*
X155707100Y-83495132D01*
X155757394Y-83629977D01*
X155757398Y-83629984D01*
X155843644Y-83745193D01*
X155843647Y-83745196D01*
X155958856Y-83831442D01*
X155958863Y-83831446D01*
X156093709Y-83881740D01*
X156093708Y-83881740D01*
X156100636Y-83882484D01*
X156153319Y-83888149D01*
X157249064Y-83888148D01*
X157308675Y-83881740D01*
X157443523Y-83831445D01*
X157558738Y-83745195D01*
X157644988Y-83629980D01*
X157695283Y-83495132D01*
X157701692Y-83435522D01*
X157701691Y-80189784D01*
X158240692Y-80189784D01*
X158240692Y-83435519D01*
X158240693Y-83435525D01*
X158247100Y-83495132D01*
X158297394Y-83629977D01*
X158297398Y-83629984D01*
X158383644Y-83745193D01*
X158383647Y-83745196D01*
X158498856Y-83831442D01*
X158498863Y-83831446D01*
X158633709Y-83881740D01*
X158633708Y-83881740D01*
X158640636Y-83882484D01*
X158693319Y-83888149D01*
X159789064Y-83888148D01*
X159848675Y-83881740D01*
X159983523Y-83831445D01*
X160098738Y-83745195D01*
X160184988Y-83629980D01*
X160235283Y-83495132D01*
X160241692Y-83435522D01*
X160241691Y-80189777D01*
X160235283Y-80130166D01*
X160184988Y-79995318D01*
X160184987Y-79995317D01*
X160184985Y-79995313D01*
X160098739Y-79880104D01*
X160098736Y-79880101D01*
X159983527Y-79793855D01*
X159983520Y-79793851D01*
X159848674Y-79743557D01*
X159848675Y-79743557D01*
X159789075Y-79737150D01*
X159789073Y-79737149D01*
X159789065Y-79737149D01*
X159789056Y-79737149D01*
X158693321Y-79737149D01*
X158693315Y-79737150D01*
X158633708Y-79743557D01*
X158498863Y-79793851D01*
X158498856Y-79793855D01*
X158383647Y-79880101D01*
X158383644Y-79880104D01*
X158297398Y-79995313D01*
X158297394Y-79995320D01*
X158247100Y-80130166D01*
X158240693Y-80189765D01*
X158240693Y-80189772D01*
X158240692Y-80189784D01*
X157701691Y-80189784D01*
X157701691Y-80189777D01*
X157695283Y-80130166D01*
X157644988Y-79995318D01*
X157644987Y-79995317D01*
X157644985Y-79995313D01*
X157558739Y-79880104D01*
X157558736Y-79880101D01*
X157443527Y-79793855D01*
X157443520Y-79793851D01*
X157308674Y-79743557D01*
X157308675Y-79743557D01*
X157249075Y-79737150D01*
X157249073Y-79737149D01*
X157249065Y-79737149D01*
X157249056Y-79737149D01*
X156153321Y-79737149D01*
X156153315Y-79737150D01*
X156093708Y-79743557D01*
X155958863Y-79793851D01*
X155958856Y-79793855D01*
X155843647Y-79880101D01*
X155843644Y-79880104D01*
X155757398Y-79995313D01*
X155757394Y-79995320D01*
X155707100Y-80130166D01*
X155700693Y-80189765D01*
X155700693Y-80189772D01*
X155700692Y-80189784D01*
X155161691Y-80189784D01*
X155161691Y-80189777D01*
X155155283Y-80130166D01*
X155104988Y-79995318D01*
X155104987Y-79995317D01*
X155104985Y-79995313D01*
X155018739Y-79880104D01*
X155018736Y-79880101D01*
X154903527Y-79793855D01*
X154903520Y-79793851D01*
X154768674Y-79743557D01*
X154768675Y-79743557D01*
X154709075Y-79737150D01*
X154709073Y-79737149D01*
X154709065Y-79737149D01*
X154709056Y-79737149D01*
X153613321Y-79737149D01*
X153613315Y-79737150D01*
X153553708Y-79743557D01*
X153418863Y-79793851D01*
X153418856Y-79793855D01*
X153303647Y-79880101D01*
X153303644Y-79880104D01*
X153217398Y-79995313D01*
X153217394Y-79995320D01*
X153167100Y-80130166D01*
X153160693Y-80189765D01*
X153160693Y-80189772D01*
X153160692Y-80189784D01*
X152621691Y-80189784D01*
X152621691Y-80189777D01*
X152615283Y-80130166D01*
X152564988Y-79995318D01*
X152564987Y-79995317D01*
X152564985Y-79995313D01*
X152478739Y-79880104D01*
X152478736Y-79880101D01*
X152363527Y-79793855D01*
X152363520Y-79793851D01*
X152228674Y-79743557D01*
X152228675Y-79743557D01*
X152169075Y-79737150D01*
X152169073Y-79737149D01*
X152169065Y-79737149D01*
X152169056Y-79737149D01*
X151073321Y-79737149D01*
X151073315Y-79737150D01*
X151013708Y-79743557D01*
X150878863Y-79793851D01*
X150878856Y-79793855D01*
X150763647Y-79880101D01*
X150763644Y-79880104D01*
X150677398Y-79995313D01*
X150677394Y-79995320D01*
X150627100Y-80130166D01*
X150620693Y-80189765D01*
X150620693Y-80189772D01*
X150620692Y-80189784D01*
X150081691Y-80189784D01*
X150081691Y-80189777D01*
X150075283Y-80130166D01*
X150024988Y-79995318D01*
X150024987Y-79995317D01*
X150024985Y-79995313D01*
X149938739Y-79880104D01*
X149938736Y-79880101D01*
X149823527Y-79793855D01*
X149823520Y-79793851D01*
X149710421Y-79751668D01*
X149654487Y-79709797D01*
X149630070Y-79644332D01*
X149644922Y-79576059D01*
X149666070Y-79547808D01*
X150557587Y-78656291D01*
X150618908Y-78622808D01*
X150688600Y-78627792D01*
X150744532Y-78669662D01*
X150763647Y-78695196D01*
X150878856Y-78781442D01*
X150878863Y-78781446D01*
X151013709Y-78831740D01*
X151013708Y-78831740D01*
X151020636Y-78832484D01*
X151073319Y-78838149D01*
X152169064Y-78838148D01*
X152228675Y-78831740D01*
X152363523Y-78781445D01*
X152478738Y-78695195D01*
X152564988Y-78579980D01*
X152615283Y-78445132D01*
X152621692Y-78385522D01*
X152621691Y-75139784D01*
X153160692Y-75139784D01*
X153160692Y-78385519D01*
X153160693Y-78385525D01*
X153167100Y-78445132D01*
X153217394Y-78579977D01*
X153217398Y-78579984D01*
X153303644Y-78695193D01*
X153303647Y-78695196D01*
X153418856Y-78781442D01*
X153418863Y-78781446D01*
X153553709Y-78831740D01*
X153553708Y-78831740D01*
X153560636Y-78832484D01*
X153613319Y-78838149D01*
X154709064Y-78838148D01*
X154768675Y-78831740D01*
X154903523Y-78781445D01*
X155018738Y-78695195D01*
X155104988Y-78579980D01*
X155155283Y-78445132D01*
X155161692Y-78385522D01*
X155161691Y-75139784D01*
X155700692Y-75139784D01*
X155700692Y-78385519D01*
X155700693Y-78385525D01*
X155707100Y-78445132D01*
X155757394Y-78579977D01*
X155757398Y-78579984D01*
X155843644Y-78695193D01*
X155843647Y-78695196D01*
X155958856Y-78781442D01*
X155958863Y-78781446D01*
X156093709Y-78831740D01*
X156093708Y-78831740D01*
X156100636Y-78832484D01*
X156153319Y-78838149D01*
X157249064Y-78838148D01*
X157308675Y-78831740D01*
X157443523Y-78781445D01*
X157558738Y-78695195D01*
X157644988Y-78579980D01*
X157695283Y-78445132D01*
X157701692Y-78385522D01*
X157701691Y-75139784D01*
X158240692Y-75139784D01*
X158240692Y-78385519D01*
X158240693Y-78385525D01*
X158247100Y-78445132D01*
X158297394Y-78579977D01*
X158297398Y-78579984D01*
X158383644Y-78695193D01*
X158383647Y-78695196D01*
X158498856Y-78781442D01*
X158498863Y-78781446D01*
X158633709Y-78831740D01*
X158633708Y-78831740D01*
X158640636Y-78832484D01*
X158693319Y-78838149D01*
X159789064Y-78838148D01*
X159848675Y-78831740D01*
X159983523Y-78781445D01*
X160098738Y-78695195D01*
X160184988Y-78579980D01*
X160235283Y-78445132D01*
X160241692Y-78385522D01*
X160241691Y-75139777D01*
X160235283Y-75080166D01*
X160184988Y-74945318D01*
X160184987Y-74945317D01*
X160184985Y-74945313D01*
X160098739Y-74830104D01*
X160098736Y-74830101D01*
X159983527Y-74743855D01*
X159983520Y-74743851D01*
X159848674Y-74693557D01*
X159848675Y-74693557D01*
X159789075Y-74687150D01*
X159789073Y-74687149D01*
X159789065Y-74687149D01*
X159789056Y-74687149D01*
X158693321Y-74687149D01*
X158693315Y-74687150D01*
X158633708Y-74693557D01*
X158498863Y-74743851D01*
X158498856Y-74743855D01*
X158383647Y-74830101D01*
X158383644Y-74830104D01*
X158297398Y-74945313D01*
X158297394Y-74945320D01*
X158247100Y-75080166D01*
X158240693Y-75139765D01*
X158240693Y-75139772D01*
X158240692Y-75139784D01*
X157701691Y-75139784D01*
X157701691Y-75139777D01*
X157695283Y-75080166D01*
X157644988Y-74945318D01*
X157644987Y-74945317D01*
X157644985Y-74945313D01*
X157558739Y-74830104D01*
X157558736Y-74830101D01*
X157443527Y-74743855D01*
X157443520Y-74743851D01*
X157308674Y-74693557D01*
X157308675Y-74693557D01*
X157249075Y-74687150D01*
X157249073Y-74687149D01*
X157249065Y-74687149D01*
X157249056Y-74687149D01*
X156153321Y-74687149D01*
X156153315Y-74687150D01*
X156093708Y-74693557D01*
X155958863Y-74743851D01*
X155958856Y-74743855D01*
X155843647Y-74830101D01*
X155843644Y-74830104D01*
X155757398Y-74945313D01*
X155757394Y-74945320D01*
X155707100Y-75080166D01*
X155700693Y-75139765D01*
X155700693Y-75139772D01*
X155700692Y-75139784D01*
X155161691Y-75139784D01*
X155161691Y-75139777D01*
X155155283Y-75080166D01*
X155104988Y-74945318D01*
X155104987Y-74945317D01*
X155104985Y-74945313D01*
X155018739Y-74830104D01*
X155018736Y-74830101D01*
X154903527Y-74743855D01*
X154903520Y-74743851D01*
X154768674Y-74693557D01*
X154768675Y-74693557D01*
X154709075Y-74687150D01*
X154709073Y-74687149D01*
X154709065Y-74687149D01*
X154709056Y-74687149D01*
X153613321Y-74687149D01*
X153613315Y-74687150D01*
X153553708Y-74693557D01*
X153418863Y-74743851D01*
X153418856Y-74743855D01*
X153303647Y-74830101D01*
X153303644Y-74830104D01*
X153217398Y-74945313D01*
X153217394Y-74945320D01*
X153167100Y-75080166D01*
X153160693Y-75139765D01*
X153160693Y-75139772D01*
X153160692Y-75139784D01*
X152621691Y-75139784D01*
X152621691Y-75139777D01*
X152615283Y-75080166D01*
X152564988Y-74945318D01*
X152564987Y-74945317D01*
X152564985Y-74945313D01*
X152478739Y-74830104D01*
X152478736Y-74830101D01*
X152363527Y-74743855D01*
X152363520Y-74743851D01*
X152228674Y-74693557D01*
X152228675Y-74693557D01*
X152169075Y-74687150D01*
X152169073Y-74687149D01*
X152169065Y-74687149D01*
X152169056Y-74687149D01*
X151073321Y-74687149D01*
X151073315Y-74687150D01*
X151013708Y-74693557D01*
X150878863Y-74743851D01*
X150878856Y-74743855D01*
X150763647Y-74830101D01*
X150763644Y-74830104D01*
X150677398Y-74945313D01*
X150677394Y-74945320D01*
X150627100Y-75080166D01*
X150620693Y-75139765D01*
X150620693Y-75139772D01*
X150620692Y-75139784D01*
X150620692Y-76897906D01*
X150601007Y-76964945D01*
X150584373Y-76985587D01*
X150316331Y-77253628D01*
X150316324Y-77253637D01*
X150313076Y-77259264D01*
X150262508Y-77307478D01*
X150193900Y-77320699D01*
X150129036Y-77294729D01*
X150088510Y-77237814D01*
X150081691Y-77197261D01*
X150081691Y-75139778D01*
X150081690Y-75139772D01*
X150081689Y-75139765D01*
X150075283Y-75080166D01*
X150024988Y-74945318D01*
X150024987Y-74945317D01*
X150024985Y-74945313D01*
X149938739Y-74830104D01*
X149938736Y-74830101D01*
X149823527Y-74743855D01*
X149823520Y-74743851D01*
X149688674Y-74693557D01*
X149688675Y-74693557D01*
X149629075Y-74687150D01*
X149629073Y-74687149D01*
X149629065Y-74687149D01*
X149629056Y-74687149D01*
X148533321Y-74687149D01*
X148533315Y-74687150D01*
X148473708Y-74693557D01*
X148338863Y-74743851D01*
X148338856Y-74743855D01*
X148223647Y-74830101D01*
X148223644Y-74830104D01*
X148137398Y-74945313D01*
X148137394Y-74945320D01*
X148087100Y-75080166D01*
X148080693Y-75139765D01*
X148080693Y-75139772D01*
X148080692Y-75139784D01*
X148080692Y-78385519D01*
X148080693Y-78385525D01*
X148087100Y-78445132D01*
X148137394Y-78579977D01*
X148137398Y-78579984D01*
X148223644Y-78695193D01*
X148223647Y-78695196D01*
X148338856Y-78781442D01*
X148338863Y-78781446D01*
X148473709Y-78831740D01*
X148481254Y-78833523D01*
X148480683Y-78835939D01*
X148533982Y-78858010D01*
X148573836Y-78915398D01*
X148576338Y-78985223D01*
X148543867Y-79042251D01*
X147646635Y-79939485D01*
X147646632Y-79939488D01*
X147631474Y-79954645D01*
X147570150Y-79988128D01*
X147500459Y-79983141D01*
X147444530Y-79941273D01*
X147436253Y-79930216D01*
X147398738Y-79880103D01*
X147398736Y-79880102D01*
X147398736Y-79880101D01*
X147283527Y-79793855D01*
X147283520Y-79793851D01*
X147148674Y-79743557D01*
X147148675Y-79743557D01*
X147089075Y-79737150D01*
X147089073Y-79737149D01*
X147089065Y-79737149D01*
X147089056Y-79737149D01*
X145993321Y-79737149D01*
X145993315Y-79737150D01*
X145933708Y-79743557D01*
X145798863Y-79793851D01*
X145798856Y-79793855D01*
X145683647Y-79880101D01*
X145683644Y-79880104D01*
X145597398Y-79995313D01*
X145597394Y-79995320D01*
X145547100Y-80130166D01*
X145540693Y-80189765D01*
X145540693Y-80189772D01*
X145540692Y-80189784D01*
X145540692Y-81994065D01*
X145521007Y-82061104D01*
X145504373Y-82081746D01*
X145213372Y-82372747D01*
X145152049Y-82406232D01*
X145082357Y-82401248D01*
X145026424Y-82359376D01*
X145002007Y-82293912D01*
X145001691Y-82285066D01*
X145001691Y-80189778D01*
X145001690Y-80189772D01*
X145001689Y-80189765D01*
X144995283Y-80130166D01*
X144944988Y-79995318D01*
X144944987Y-79995317D01*
X144944985Y-79995313D01*
X144858739Y-79880104D01*
X144858736Y-79880101D01*
X144743527Y-79793855D01*
X144743520Y-79793851D01*
X144608674Y-79743557D01*
X144608675Y-79743557D01*
X144549075Y-79737150D01*
X144549073Y-79737149D01*
X144549065Y-79737149D01*
X144549056Y-79737149D01*
X143453321Y-79737149D01*
X143453315Y-79737150D01*
X143393708Y-79743557D01*
X143258863Y-79793851D01*
X143258856Y-79793855D01*
X143143647Y-79880101D01*
X143143644Y-79880104D01*
X143057398Y-79995313D01*
X143057394Y-79995320D01*
X143007100Y-80130166D01*
X143000693Y-80189765D01*
X143000693Y-80189772D01*
X143000692Y-80189784D01*
X143000692Y-83435519D01*
X143000693Y-83435525D01*
X143007100Y-83495132D01*
X143057394Y-83629977D01*
X143057398Y-83629984D01*
X143143644Y-83745193D01*
X143143647Y-83745196D01*
X143258856Y-83831442D01*
X143258863Y-83831446D01*
X143393705Y-83881739D01*
X143393706Y-83881739D01*
X143393709Y-83881740D01*
X143416529Y-83884193D01*
X143481078Y-83910929D01*
X143520928Y-83968320D01*
X143523423Y-84038146D01*
X143490955Y-84095163D01*
X139646635Y-87939485D01*
X139539487Y-88046632D01*
X139539485Y-88046635D01*
X139463719Y-88177863D01*
X139424500Y-88324234D01*
X135200500Y-88324234D01*
X135200500Y-81227510D01*
X139605857Y-81227510D01*
X139605857Y-81385203D01*
X139636618Y-81539846D01*
X139636621Y-81539858D01*
X139696959Y-81685529D01*
X139696966Y-81685542D01*
X139784567Y-81816645D01*
X139784570Y-81816649D01*
X139896064Y-81928143D01*
X139896068Y-81928146D01*
X140027171Y-82015747D01*
X140027184Y-82015754D01*
X140172855Y-82076092D01*
X140172860Y-82076094D01*
X140327510Y-82106856D01*
X140327513Y-82106857D01*
X140327515Y-82106857D01*
X140485201Y-82106857D01*
X140485202Y-82106856D01*
X140639854Y-82076094D01*
X140785536Y-82015751D01*
X140916646Y-81928146D01*
X141028146Y-81816646D01*
X141115751Y-81685536D01*
X141176094Y-81539854D01*
X141206857Y-81385199D01*
X141206857Y-81227515D01*
X141206857Y-81227512D01*
X141206856Y-81227510D01*
X141176095Y-81072867D01*
X141176094Y-81072860D01*
X141176092Y-81072855D01*
X141115754Y-80927184D01*
X141115747Y-80927171D01*
X141028146Y-80796068D01*
X141028143Y-80796064D01*
X140916649Y-80684570D01*
X140916645Y-80684567D01*
X140785542Y-80596966D01*
X140785529Y-80596959D01*
X140639858Y-80536621D01*
X140639846Y-80536618D01*
X140485202Y-80505857D01*
X140485199Y-80505857D01*
X140327515Y-80505857D01*
X140327512Y-80505857D01*
X140172867Y-80536618D01*
X140172855Y-80536621D01*
X140027184Y-80596959D01*
X140027171Y-80596966D01*
X139896068Y-80684567D01*
X139896064Y-80684570D01*
X139784570Y-80796064D01*
X139784567Y-80796068D01*
X139696966Y-80927171D01*
X139696959Y-80927184D01*
X139636621Y-81072855D01*
X139636618Y-81072867D01*
X139605857Y-81227510D01*
X135200500Y-81227510D01*
X135200500Y-77614949D01*
X139618418Y-77614949D01*
X139618418Y-77772642D01*
X139649179Y-77927285D01*
X139649182Y-77927297D01*
X139709520Y-78072968D01*
X139709527Y-78072981D01*
X139797128Y-78204084D01*
X139797131Y-78204088D01*
X139908625Y-78315582D01*
X139908629Y-78315585D01*
X140039732Y-78403186D01*
X140039745Y-78403193D01*
X140185416Y-78463531D01*
X140185421Y-78463533D01*
X140340071Y-78494295D01*
X140340074Y-78494296D01*
X140340076Y-78494296D01*
X140497762Y-78494296D01*
X140497763Y-78494295D01*
X140652415Y-78463533D01*
X140798097Y-78403190D01*
X140929207Y-78315585D01*
X141040707Y-78204085D01*
X141128312Y-78072975D01*
X141188655Y-77927293D01*
X141219418Y-77772638D01*
X141219418Y-77614954D01*
X141219418Y-77614951D01*
X141219417Y-77614949D01*
X141188656Y-77460306D01*
X141188655Y-77460299D01*
X141188653Y-77460294D01*
X141128315Y-77314623D01*
X141128308Y-77314610D01*
X141040707Y-77183507D01*
X141040704Y-77183503D01*
X140929210Y-77072009D01*
X140929206Y-77072006D01*
X140798103Y-76984405D01*
X140798090Y-76984398D01*
X140652419Y-76924060D01*
X140652407Y-76924057D01*
X140497763Y-76893296D01*
X140497760Y-76893296D01*
X140340076Y-76893296D01*
X140340073Y-76893296D01*
X140185428Y-76924057D01*
X140185416Y-76924060D01*
X140039745Y-76984398D01*
X140039732Y-76984405D01*
X139908629Y-77072006D01*
X139908625Y-77072009D01*
X139797131Y-77183503D01*
X139797128Y-77183507D01*
X139709527Y-77314610D01*
X139709520Y-77314623D01*
X139649182Y-77460294D01*
X139649179Y-77460306D01*
X139618418Y-77614949D01*
X135200500Y-77614949D01*
X135200500Y-75139784D01*
X143000692Y-75139784D01*
X143000692Y-78385519D01*
X143000693Y-78385525D01*
X143007100Y-78445132D01*
X143057394Y-78579977D01*
X143057398Y-78579984D01*
X143143644Y-78695193D01*
X143143647Y-78695196D01*
X143258856Y-78781442D01*
X143258863Y-78781446D01*
X143393709Y-78831740D01*
X143393708Y-78831740D01*
X143400636Y-78832484D01*
X143453319Y-78838149D01*
X144549064Y-78838148D01*
X144608675Y-78831740D01*
X144743523Y-78781445D01*
X144858738Y-78695195D01*
X144944988Y-78579980D01*
X144995283Y-78445132D01*
X145001692Y-78385522D01*
X145001691Y-75139784D01*
X145540692Y-75139784D01*
X145540692Y-78385519D01*
X145540693Y-78385525D01*
X145547100Y-78445132D01*
X145597394Y-78579977D01*
X145597398Y-78579984D01*
X145683644Y-78695193D01*
X145683647Y-78695196D01*
X145798856Y-78781442D01*
X145798863Y-78781446D01*
X145933709Y-78831740D01*
X145933708Y-78831740D01*
X145940636Y-78832484D01*
X145993319Y-78838149D01*
X147089064Y-78838148D01*
X147148675Y-78831740D01*
X147283523Y-78781445D01*
X147398738Y-78695195D01*
X147484988Y-78579980D01*
X147535283Y-78445132D01*
X147541692Y-78385522D01*
X147541691Y-75139777D01*
X147535283Y-75080166D01*
X147484988Y-74945318D01*
X147484987Y-74945317D01*
X147484985Y-74945313D01*
X147398739Y-74830104D01*
X147398736Y-74830101D01*
X147283527Y-74743855D01*
X147283520Y-74743851D01*
X147148674Y-74693557D01*
X147148675Y-74693557D01*
X147089075Y-74687150D01*
X147089073Y-74687149D01*
X147089065Y-74687149D01*
X147089056Y-74687149D01*
X145993321Y-74687149D01*
X145993315Y-74687150D01*
X145933708Y-74693557D01*
X145798863Y-74743851D01*
X145798856Y-74743855D01*
X145683647Y-74830101D01*
X145683644Y-74830104D01*
X145597398Y-74945313D01*
X145597394Y-74945320D01*
X145547100Y-75080166D01*
X145540693Y-75139765D01*
X145540693Y-75139772D01*
X145540692Y-75139784D01*
X145001691Y-75139784D01*
X145001691Y-75139777D01*
X144995283Y-75080166D01*
X144944988Y-74945318D01*
X144944987Y-74945317D01*
X144944985Y-74945313D01*
X144858739Y-74830104D01*
X144858736Y-74830101D01*
X144743527Y-74743855D01*
X144743520Y-74743851D01*
X144608674Y-74693557D01*
X144608675Y-74693557D01*
X144549075Y-74687150D01*
X144549073Y-74687149D01*
X144549065Y-74687149D01*
X144549056Y-74687149D01*
X143453321Y-74687149D01*
X143453315Y-74687150D01*
X143393708Y-74693557D01*
X143258863Y-74743851D01*
X143258856Y-74743855D01*
X143143647Y-74830101D01*
X143143644Y-74830104D01*
X143057398Y-74945313D01*
X143057394Y-74945320D01*
X143007100Y-75080166D01*
X143000693Y-75139765D01*
X143000693Y-75139772D01*
X143000692Y-75139784D01*
X135200500Y-75139784D01*
X135200500Y-74209087D01*
X135200553Y-74205476D01*
X135201177Y-74184046D01*
X135204636Y-74065359D01*
X135205083Y-74057846D01*
X135215896Y-73938183D01*
X135216862Y-73930322D01*
X135233841Y-73821146D01*
X135235391Y-73812989D01*
X135257616Y-73714208D01*
X135259808Y-73705842D01*
X135272561Y-73663273D01*
X135287004Y-73615060D01*
X135289859Y-73606643D01*
X135316831Y-73535643D01*
X135322395Y-73523131D01*
X135402138Y-73367634D01*
X135411944Y-73351630D01*
X135502627Y-73226102D01*
X135514702Y-73211803D01*
X135624462Y-73100155D01*
X135638062Y-73088208D01*
X135771290Y-72987442D01*
X135785613Y-72978089D01*
X135946249Y-72888363D01*
X135960546Y-72881538D01*
X136149459Y-72805791D01*
X136163268Y-72801175D01*
X136373983Y-72744270D01*
X136387072Y-72741485D01*
X136595945Y-72708681D01*
X136607274Y-72707432D01*
X136712004Y-72700752D01*
X136719898Y-72700500D01*
X164290912Y-72700500D01*
X164294523Y-72700553D01*
G37*
%TD.AperFunction*%
%TD*%
M02*
