%TF.GenerationSoftware,KiCad,Pcbnew,9.0.5*%
%TF.CreationDate,2025-11-02T19:46:25-03:00*%
%TF.ProjectId,WCM_v1D,57434d5f-7631-4442-9e6b-696361645f70,rev?*%
%TF.SameCoordinates,Original*%
%TF.FileFunction,Legend,Bot*%
%TF.FilePolarity,Positive*%
%FSLAX46Y46*%
G04 Gerber Fmt 4.6, Leading zero omitted, Abs format (unit mm)*
G04 Created by KiCad (PCBNEW 9.0.5) date 2025-11-02 19:46:25*
%MOMM*%
%LPD*%
G01*
G04 APERTURE LIST*
%ADD10C,0.300000*%
%ADD11C,0.062500*%
%ADD12C,0.150000*%
%ADD13C,0.106680*%
%ADD14C,0.120000*%
%ADD15C,0.127000*%
%ADD16C,0.100000*%
%ADD17C,0.504000*%
G04 APERTURE END LIST*
D10*
X157102633Y-74115114D02*
X156888347Y-74186542D01*
X156888347Y-74186542D02*
X156816918Y-74257971D01*
X156816918Y-74257971D02*
X156745490Y-74400828D01*
X156745490Y-74400828D02*
X156745490Y-74615114D01*
X156745490Y-74615114D02*
X156816918Y-74757971D01*
X156816918Y-74757971D02*
X156888347Y-74829400D01*
X156888347Y-74829400D02*
X157031204Y-74900828D01*
X157031204Y-74900828D02*
X157602633Y-74900828D01*
X157602633Y-74900828D02*
X157602633Y-73400828D01*
X157602633Y-73400828D02*
X157102633Y-73400828D01*
X157102633Y-73400828D02*
X156959776Y-73472257D01*
X156959776Y-73472257D02*
X156888347Y-73543685D01*
X156888347Y-73543685D02*
X156816918Y-73686542D01*
X156816918Y-73686542D02*
X156816918Y-73829400D01*
X156816918Y-73829400D02*
X156888347Y-73972257D01*
X156888347Y-73972257D02*
X156959776Y-74043685D01*
X156959776Y-74043685D02*
X157102633Y-74115114D01*
X157102633Y-74115114D02*
X157602633Y-74115114D01*
X156102633Y-74900828D02*
X156102633Y-73900828D01*
X156102633Y-73400828D02*
X156174061Y-73472257D01*
X156174061Y-73472257D02*
X156102633Y-73543685D01*
X156102633Y-73543685D02*
X156031204Y-73472257D01*
X156031204Y-73472257D02*
X156102633Y-73400828D01*
X156102633Y-73400828D02*
X156102633Y-73543685D01*
X155602632Y-73900828D02*
X155031204Y-73900828D01*
X155388347Y-73400828D02*
X155388347Y-74686542D01*
X155388347Y-74686542D02*
X155316918Y-74829400D01*
X155316918Y-74829400D02*
X155174061Y-74900828D01*
X155174061Y-74900828D02*
X155031204Y-74900828D01*
X154531204Y-74900828D02*
X154531204Y-73400828D01*
X154531204Y-73400828D02*
X154174061Y-73400828D01*
X154174061Y-73400828D02*
X153959775Y-73472257D01*
X153959775Y-73472257D02*
X153816918Y-73615114D01*
X153816918Y-73615114D02*
X153745489Y-73757971D01*
X153745489Y-73757971D02*
X153674061Y-74043685D01*
X153674061Y-74043685D02*
X153674061Y-74257971D01*
X153674061Y-74257971D02*
X153745489Y-74543685D01*
X153745489Y-74543685D02*
X153816918Y-74686542D01*
X153816918Y-74686542D02*
X153959775Y-74829400D01*
X153959775Y-74829400D02*
X154174061Y-74900828D01*
X154174061Y-74900828D02*
X154531204Y-74900828D01*
X152816918Y-74900828D02*
X152959775Y-74829400D01*
X152959775Y-74829400D02*
X153031204Y-74757971D01*
X153031204Y-74757971D02*
X153102632Y-74615114D01*
X153102632Y-74615114D02*
X153102632Y-74186542D01*
X153102632Y-74186542D02*
X153031204Y-74043685D01*
X153031204Y-74043685D02*
X152959775Y-73972257D01*
X152959775Y-73972257D02*
X152816918Y-73900828D01*
X152816918Y-73900828D02*
X152602632Y-73900828D01*
X152602632Y-73900828D02*
X152459775Y-73972257D01*
X152459775Y-73972257D02*
X152388347Y-74043685D01*
X152388347Y-74043685D02*
X152316918Y-74186542D01*
X152316918Y-74186542D02*
X152316918Y-74615114D01*
X152316918Y-74615114D02*
X152388347Y-74757971D01*
X152388347Y-74757971D02*
X152459775Y-74829400D01*
X152459775Y-74829400D02*
X152602632Y-74900828D01*
X152602632Y-74900828D02*
X152816918Y-74900828D01*
X151031204Y-73900828D02*
X151031204Y-75115114D01*
X151031204Y-75115114D02*
X151102632Y-75257971D01*
X151102632Y-75257971D02*
X151174061Y-75329400D01*
X151174061Y-75329400D02*
X151316918Y-75400828D01*
X151316918Y-75400828D02*
X151531204Y-75400828D01*
X151531204Y-75400828D02*
X151674061Y-75329400D01*
X151031204Y-74829400D02*
X151174061Y-74900828D01*
X151174061Y-74900828D02*
X151459775Y-74900828D01*
X151459775Y-74900828D02*
X151602632Y-74829400D01*
X151602632Y-74829400D02*
X151674061Y-74757971D01*
X151674061Y-74757971D02*
X151745489Y-74615114D01*
X151745489Y-74615114D02*
X151745489Y-74186542D01*
X151745489Y-74186542D02*
X151674061Y-74043685D01*
X151674061Y-74043685D02*
X151602632Y-73972257D01*
X151602632Y-73972257D02*
X151459775Y-73900828D01*
X151459775Y-73900828D02*
X151174061Y-73900828D01*
X151174061Y-73900828D02*
X151031204Y-73972257D01*
X148316918Y-74900828D02*
X148816918Y-74186542D01*
X149174061Y-74900828D02*
X149174061Y-73400828D01*
X149174061Y-73400828D02*
X148602632Y-73400828D01*
X148602632Y-73400828D02*
X148459775Y-73472257D01*
X148459775Y-73472257D02*
X148388346Y-73543685D01*
X148388346Y-73543685D02*
X148316918Y-73686542D01*
X148316918Y-73686542D02*
X148316918Y-73900828D01*
X148316918Y-73900828D02*
X148388346Y-74043685D01*
X148388346Y-74043685D02*
X148459775Y-74115114D01*
X148459775Y-74115114D02*
X148602632Y-74186542D01*
X148602632Y-74186542D02*
X149174061Y-74186542D01*
X147031204Y-74900828D02*
X147031204Y-74115114D01*
X147031204Y-74115114D02*
X147102632Y-73972257D01*
X147102632Y-73972257D02*
X147245489Y-73900828D01*
X147245489Y-73900828D02*
X147531204Y-73900828D01*
X147531204Y-73900828D02*
X147674061Y-73972257D01*
X147031204Y-74829400D02*
X147174061Y-74900828D01*
X147174061Y-74900828D02*
X147531204Y-74900828D01*
X147531204Y-74900828D02*
X147674061Y-74829400D01*
X147674061Y-74829400D02*
X147745489Y-74686542D01*
X147745489Y-74686542D02*
X147745489Y-74543685D01*
X147745489Y-74543685D02*
X147674061Y-74400828D01*
X147674061Y-74400828D02*
X147531204Y-74329400D01*
X147531204Y-74329400D02*
X147174061Y-74329400D01*
X147174061Y-74329400D02*
X147031204Y-74257971D01*
X145674061Y-74900828D02*
X145674061Y-73400828D01*
X145674061Y-74829400D02*
X145816918Y-74900828D01*
X145816918Y-74900828D02*
X146102632Y-74900828D01*
X146102632Y-74900828D02*
X146245489Y-74829400D01*
X146245489Y-74829400D02*
X146316918Y-74757971D01*
X146316918Y-74757971D02*
X146388346Y-74615114D01*
X146388346Y-74615114D02*
X146388346Y-74186542D01*
X146388346Y-74186542D02*
X146316918Y-74043685D01*
X146316918Y-74043685D02*
X146245489Y-73972257D01*
X146245489Y-73972257D02*
X146102632Y-73900828D01*
X146102632Y-73900828D02*
X145816918Y-73900828D01*
X145816918Y-73900828D02*
X145674061Y-73972257D01*
X144959775Y-74900828D02*
X144959775Y-73900828D01*
X144959775Y-73400828D02*
X145031203Y-73472257D01*
X145031203Y-73472257D02*
X144959775Y-73543685D01*
X144959775Y-73543685D02*
X144888346Y-73472257D01*
X144888346Y-73472257D02*
X144959775Y-73400828D01*
X144959775Y-73400828D02*
X144959775Y-73543685D01*
X144031203Y-74900828D02*
X144174060Y-74829400D01*
X144174060Y-74829400D02*
X144245489Y-74757971D01*
X144245489Y-74757971D02*
X144316917Y-74615114D01*
X144316917Y-74615114D02*
X144316917Y-74186542D01*
X144316917Y-74186542D02*
X144245489Y-74043685D01*
X144245489Y-74043685D02*
X144174060Y-73972257D01*
X144174060Y-73972257D02*
X144031203Y-73900828D01*
X144031203Y-73900828D02*
X143816917Y-73900828D01*
X143816917Y-73900828D02*
X143674060Y-73972257D01*
X143674060Y-73972257D02*
X143602632Y-74043685D01*
X143602632Y-74043685D02*
X143531203Y-74186542D01*
X143531203Y-74186542D02*
X143531203Y-74615114D01*
X143531203Y-74615114D02*
X143602632Y-74757971D01*
X143602632Y-74757971D02*
X143674060Y-74829400D01*
X143674060Y-74829400D02*
X143816917Y-74900828D01*
X143816917Y-74900828D02*
X144031203Y-74900828D01*
D11*
X158719058Y-78634845D02*
X158766677Y-78611035D01*
X158766677Y-78611035D02*
X158838106Y-78611035D01*
X158838106Y-78611035D02*
X158909534Y-78634845D01*
X158909534Y-78634845D02*
X158957153Y-78682464D01*
X158957153Y-78682464D02*
X158980963Y-78730083D01*
X158980963Y-78730083D02*
X159004772Y-78825321D01*
X159004772Y-78825321D02*
X159004772Y-78896749D01*
X159004772Y-78896749D02*
X158980963Y-78991987D01*
X158980963Y-78991987D02*
X158957153Y-79039606D01*
X158957153Y-79039606D02*
X158909534Y-79087226D01*
X158909534Y-79087226D02*
X158838106Y-79111035D01*
X158838106Y-79111035D02*
X158790487Y-79111035D01*
X158790487Y-79111035D02*
X158719058Y-79087226D01*
X158719058Y-79087226D02*
X158695249Y-79063416D01*
X158695249Y-79063416D02*
X158695249Y-78896749D01*
X158695249Y-78896749D02*
X158790487Y-78896749D01*
X158480963Y-79111035D02*
X158480963Y-78611035D01*
X158480963Y-78611035D02*
X158290487Y-78611035D01*
X158290487Y-78611035D02*
X158242868Y-78634845D01*
X158242868Y-78634845D02*
X158219058Y-78658654D01*
X158219058Y-78658654D02*
X158195249Y-78706273D01*
X158195249Y-78706273D02*
X158195249Y-78777702D01*
X158195249Y-78777702D02*
X158219058Y-78825321D01*
X158219058Y-78825321D02*
X158242868Y-78849130D01*
X158242868Y-78849130D02*
X158290487Y-78872940D01*
X158290487Y-78872940D02*
X158480963Y-78872940D01*
X157719058Y-79111035D02*
X158004772Y-79111035D01*
X157861915Y-79111035D02*
X157861915Y-78611035D01*
X157861915Y-78611035D02*
X157909534Y-78682464D01*
X157909534Y-78682464D02*
X157957153Y-78730083D01*
X157957153Y-78730083D02*
X158004772Y-78753892D01*
X157290487Y-78777702D02*
X157290487Y-79111035D01*
X157409535Y-78587226D02*
X157528582Y-78944368D01*
X157528582Y-78944368D02*
X157219059Y-78944368D01*
X156385726Y-78634845D02*
X156433345Y-78611035D01*
X156433345Y-78611035D02*
X156504774Y-78611035D01*
X156504774Y-78611035D02*
X156576202Y-78634845D01*
X156576202Y-78634845D02*
X156623821Y-78682464D01*
X156623821Y-78682464D02*
X156647631Y-78730083D01*
X156647631Y-78730083D02*
X156671440Y-78825321D01*
X156671440Y-78825321D02*
X156671440Y-78896749D01*
X156671440Y-78896749D02*
X156647631Y-78991987D01*
X156647631Y-78991987D02*
X156623821Y-79039606D01*
X156623821Y-79039606D02*
X156576202Y-79087226D01*
X156576202Y-79087226D02*
X156504774Y-79111035D01*
X156504774Y-79111035D02*
X156457155Y-79111035D01*
X156457155Y-79111035D02*
X156385726Y-79087226D01*
X156385726Y-79087226D02*
X156361917Y-79063416D01*
X156361917Y-79063416D02*
X156361917Y-78896749D01*
X156361917Y-78896749D02*
X156457155Y-78896749D01*
X156147631Y-79111035D02*
X156147631Y-78611035D01*
X156147631Y-78611035D02*
X155957155Y-78611035D01*
X155957155Y-78611035D02*
X155909536Y-78634845D01*
X155909536Y-78634845D02*
X155885726Y-78658654D01*
X155885726Y-78658654D02*
X155861917Y-78706273D01*
X155861917Y-78706273D02*
X155861917Y-78777702D01*
X155861917Y-78777702D02*
X155885726Y-78825321D01*
X155885726Y-78825321D02*
X155909536Y-78849130D01*
X155909536Y-78849130D02*
X155957155Y-78872940D01*
X155957155Y-78872940D02*
X156147631Y-78872940D01*
X155385726Y-79111035D02*
X155671440Y-79111035D01*
X155528583Y-79111035D02*
X155528583Y-78611035D01*
X155528583Y-78611035D02*
X155576202Y-78682464D01*
X155576202Y-78682464D02*
X155623821Y-78730083D01*
X155623821Y-78730083D02*
X155671440Y-78753892D01*
X154957155Y-78611035D02*
X155052393Y-78611035D01*
X155052393Y-78611035D02*
X155100012Y-78634845D01*
X155100012Y-78634845D02*
X155123822Y-78658654D01*
X155123822Y-78658654D02*
X155171441Y-78730083D01*
X155171441Y-78730083D02*
X155195250Y-78825321D01*
X155195250Y-78825321D02*
X155195250Y-79015797D01*
X155195250Y-79015797D02*
X155171441Y-79063416D01*
X155171441Y-79063416D02*
X155147631Y-79087226D01*
X155147631Y-79087226D02*
X155100012Y-79111035D01*
X155100012Y-79111035D02*
X155004774Y-79111035D01*
X155004774Y-79111035D02*
X154957155Y-79087226D01*
X154957155Y-79087226D02*
X154933346Y-79063416D01*
X154933346Y-79063416D02*
X154909536Y-79015797D01*
X154909536Y-79015797D02*
X154909536Y-78896749D01*
X154909536Y-78896749D02*
X154933346Y-78849130D01*
X154933346Y-78849130D02*
X154957155Y-78825321D01*
X154957155Y-78825321D02*
X155004774Y-78801511D01*
X155004774Y-78801511D02*
X155100012Y-78801511D01*
X155100012Y-78801511D02*
X155147631Y-78825321D01*
X155147631Y-78825321D02*
X155171441Y-78849130D01*
X155171441Y-78849130D02*
X155195250Y-78896749D01*
X154052394Y-78634845D02*
X154100013Y-78611035D01*
X154100013Y-78611035D02*
X154171442Y-78611035D01*
X154171442Y-78611035D02*
X154242870Y-78634845D01*
X154242870Y-78634845D02*
X154290489Y-78682464D01*
X154290489Y-78682464D02*
X154314299Y-78730083D01*
X154314299Y-78730083D02*
X154338108Y-78825321D01*
X154338108Y-78825321D02*
X154338108Y-78896749D01*
X154338108Y-78896749D02*
X154314299Y-78991987D01*
X154314299Y-78991987D02*
X154290489Y-79039606D01*
X154290489Y-79039606D02*
X154242870Y-79087226D01*
X154242870Y-79087226D02*
X154171442Y-79111035D01*
X154171442Y-79111035D02*
X154123823Y-79111035D01*
X154123823Y-79111035D02*
X154052394Y-79087226D01*
X154052394Y-79087226D02*
X154028585Y-79063416D01*
X154028585Y-79063416D02*
X154028585Y-78896749D01*
X154028585Y-78896749D02*
X154123823Y-78896749D01*
X153814299Y-79111035D02*
X153814299Y-78611035D01*
X153814299Y-78611035D02*
X153623823Y-78611035D01*
X153623823Y-78611035D02*
X153576204Y-78634845D01*
X153576204Y-78634845D02*
X153552394Y-78658654D01*
X153552394Y-78658654D02*
X153528585Y-78706273D01*
X153528585Y-78706273D02*
X153528585Y-78777702D01*
X153528585Y-78777702D02*
X153552394Y-78825321D01*
X153552394Y-78825321D02*
X153576204Y-78849130D01*
X153576204Y-78849130D02*
X153623823Y-78872940D01*
X153623823Y-78872940D02*
X153814299Y-78872940D01*
X153052394Y-79111035D02*
X153338108Y-79111035D01*
X153195251Y-79111035D02*
X153195251Y-78611035D01*
X153195251Y-78611035D02*
X153242870Y-78682464D01*
X153242870Y-78682464D02*
X153290489Y-78730083D01*
X153290489Y-78730083D02*
X153338108Y-78753892D01*
X152885728Y-78611035D02*
X152552395Y-78611035D01*
X152552395Y-78611035D02*
X152766680Y-79111035D01*
X151719062Y-78634845D02*
X151766681Y-78611035D01*
X151766681Y-78611035D02*
X151838110Y-78611035D01*
X151838110Y-78611035D02*
X151909538Y-78634845D01*
X151909538Y-78634845D02*
X151957157Y-78682464D01*
X151957157Y-78682464D02*
X151980967Y-78730083D01*
X151980967Y-78730083D02*
X152004776Y-78825321D01*
X152004776Y-78825321D02*
X152004776Y-78896749D01*
X152004776Y-78896749D02*
X151980967Y-78991987D01*
X151980967Y-78991987D02*
X151957157Y-79039606D01*
X151957157Y-79039606D02*
X151909538Y-79087226D01*
X151909538Y-79087226D02*
X151838110Y-79111035D01*
X151838110Y-79111035D02*
X151790491Y-79111035D01*
X151790491Y-79111035D02*
X151719062Y-79087226D01*
X151719062Y-79087226D02*
X151695253Y-79063416D01*
X151695253Y-79063416D02*
X151695253Y-78896749D01*
X151695253Y-78896749D02*
X151790491Y-78896749D01*
X151480967Y-79111035D02*
X151480967Y-78611035D01*
X151480967Y-78611035D02*
X151290491Y-78611035D01*
X151290491Y-78611035D02*
X151242872Y-78634845D01*
X151242872Y-78634845D02*
X151219062Y-78658654D01*
X151219062Y-78658654D02*
X151195253Y-78706273D01*
X151195253Y-78706273D02*
X151195253Y-78777702D01*
X151195253Y-78777702D02*
X151219062Y-78825321D01*
X151219062Y-78825321D02*
X151242872Y-78849130D01*
X151242872Y-78849130D02*
X151290491Y-78872940D01*
X151290491Y-78872940D02*
X151480967Y-78872940D01*
X150719062Y-79111035D02*
X151004776Y-79111035D01*
X150861919Y-79111035D02*
X150861919Y-78611035D01*
X150861919Y-78611035D02*
X150909538Y-78682464D01*
X150909538Y-78682464D02*
X150957157Y-78730083D01*
X150957157Y-78730083D02*
X151004776Y-78753892D01*
X150266682Y-78611035D02*
X150504777Y-78611035D01*
X150504777Y-78611035D02*
X150528586Y-78849130D01*
X150528586Y-78849130D02*
X150504777Y-78825321D01*
X150504777Y-78825321D02*
X150457158Y-78801511D01*
X150457158Y-78801511D02*
X150338110Y-78801511D01*
X150338110Y-78801511D02*
X150290491Y-78825321D01*
X150290491Y-78825321D02*
X150266682Y-78849130D01*
X150266682Y-78849130D02*
X150242872Y-78896749D01*
X150242872Y-78896749D02*
X150242872Y-79015797D01*
X150242872Y-79015797D02*
X150266682Y-79063416D01*
X150266682Y-79063416D02*
X150290491Y-79087226D01*
X150290491Y-79087226D02*
X150338110Y-79111035D01*
X150338110Y-79111035D02*
X150457158Y-79111035D01*
X150457158Y-79111035D02*
X150504777Y-79087226D01*
X150504777Y-79087226D02*
X150528586Y-79063416D01*
X149385730Y-78634845D02*
X149433349Y-78611035D01*
X149433349Y-78611035D02*
X149504778Y-78611035D01*
X149504778Y-78611035D02*
X149576206Y-78634845D01*
X149576206Y-78634845D02*
X149623825Y-78682464D01*
X149623825Y-78682464D02*
X149647635Y-78730083D01*
X149647635Y-78730083D02*
X149671444Y-78825321D01*
X149671444Y-78825321D02*
X149671444Y-78896749D01*
X149671444Y-78896749D02*
X149647635Y-78991987D01*
X149647635Y-78991987D02*
X149623825Y-79039606D01*
X149623825Y-79039606D02*
X149576206Y-79087226D01*
X149576206Y-79087226D02*
X149504778Y-79111035D01*
X149504778Y-79111035D02*
X149457159Y-79111035D01*
X149457159Y-79111035D02*
X149385730Y-79087226D01*
X149385730Y-79087226D02*
X149361921Y-79063416D01*
X149361921Y-79063416D02*
X149361921Y-78896749D01*
X149361921Y-78896749D02*
X149457159Y-78896749D01*
X149147635Y-79111035D02*
X149147635Y-78611035D01*
X149147635Y-78611035D02*
X148957159Y-78611035D01*
X148957159Y-78611035D02*
X148909540Y-78634845D01*
X148909540Y-78634845D02*
X148885730Y-78658654D01*
X148885730Y-78658654D02*
X148861921Y-78706273D01*
X148861921Y-78706273D02*
X148861921Y-78777702D01*
X148861921Y-78777702D02*
X148885730Y-78825321D01*
X148885730Y-78825321D02*
X148909540Y-78849130D01*
X148909540Y-78849130D02*
X148957159Y-78872940D01*
X148957159Y-78872940D02*
X149147635Y-78872940D01*
X148671444Y-78658654D02*
X148647635Y-78634845D01*
X148647635Y-78634845D02*
X148600016Y-78611035D01*
X148600016Y-78611035D02*
X148480968Y-78611035D01*
X148480968Y-78611035D02*
X148433349Y-78634845D01*
X148433349Y-78634845D02*
X148409540Y-78658654D01*
X148409540Y-78658654D02*
X148385730Y-78706273D01*
X148385730Y-78706273D02*
X148385730Y-78753892D01*
X148385730Y-78753892D02*
X148409540Y-78825321D01*
X148409540Y-78825321D02*
X148695254Y-79111035D01*
X148695254Y-79111035D02*
X148385730Y-79111035D01*
X148100016Y-78825321D02*
X148147635Y-78801511D01*
X148147635Y-78801511D02*
X148171445Y-78777702D01*
X148171445Y-78777702D02*
X148195254Y-78730083D01*
X148195254Y-78730083D02*
X148195254Y-78706273D01*
X148195254Y-78706273D02*
X148171445Y-78658654D01*
X148171445Y-78658654D02*
X148147635Y-78634845D01*
X148147635Y-78634845D02*
X148100016Y-78611035D01*
X148100016Y-78611035D02*
X148004778Y-78611035D01*
X148004778Y-78611035D02*
X147957159Y-78634845D01*
X147957159Y-78634845D02*
X147933350Y-78658654D01*
X147933350Y-78658654D02*
X147909540Y-78706273D01*
X147909540Y-78706273D02*
X147909540Y-78730083D01*
X147909540Y-78730083D02*
X147933350Y-78777702D01*
X147933350Y-78777702D02*
X147957159Y-78801511D01*
X147957159Y-78801511D02*
X148004778Y-78825321D01*
X148004778Y-78825321D02*
X148100016Y-78825321D01*
X148100016Y-78825321D02*
X148147635Y-78849130D01*
X148147635Y-78849130D02*
X148171445Y-78872940D01*
X148171445Y-78872940D02*
X148195254Y-78920559D01*
X148195254Y-78920559D02*
X148195254Y-79015797D01*
X148195254Y-79015797D02*
X148171445Y-79063416D01*
X148171445Y-79063416D02*
X148147635Y-79087226D01*
X148147635Y-79087226D02*
X148100016Y-79111035D01*
X148100016Y-79111035D02*
X148004778Y-79111035D01*
X148004778Y-79111035D02*
X147957159Y-79087226D01*
X147957159Y-79087226D02*
X147933350Y-79063416D01*
X147933350Y-79063416D02*
X147909540Y-79015797D01*
X147909540Y-79015797D02*
X147909540Y-78920559D01*
X147909540Y-78920559D02*
X147933350Y-78872940D01*
X147933350Y-78872940D02*
X147957159Y-78849130D01*
X147957159Y-78849130D02*
X148004778Y-78825321D01*
X147361922Y-78611035D02*
X147052398Y-78611035D01*
X147052398Y-78611035D02*
X147219065Y-78801511D01*
X147219065Y-78801511D02*
X147147636Y-78801511D01*
X147147636Y-78801511D02*
X147100017Y-78825321D01*
X147100017Y-78825321D02*
X147076208Y-78849130D01*
X147076208Y-78849130D02*
X147052398Y-78896749D01*
X147052398Y-78896749D02*
X147052398Y-79015797D01*
X147052398Y-79015797D02*
X147076208Y-79063416D01*
X147076208Y-79063416D02*
X147100017Y-79087226D01*
X147100017Y-79087226D02*
X147147636Y-79111035D01*
X147147636Y-79111035D02*
X147290493Y-79111035D01*
X147290493Y-79111035D02*
X147338112Y-79087226D01*
X147338112Y-79087226D02*
X147361922Y-79063416D01*
X146909541Y-78611035D02*
X146742875Y-79111035D01*
X146742875Y-79111035D02*
X146576208Y-78611035D01*
X146457161Y-78611035D02*
X146147637Y-78611035D01*
X146147637Y-78611035D02*
X146314304Y-78801511D01*
X146314304Y-78801511D02*
X146242875Y-78801511D01*
X146242875Y-78801511D02*
X146195256Y-78825321D01*
X146195256Y-78825321D02*
X146171447Y-78849130D01*
X146171447Y-78849130D02*
X146147637Y-78896749D01*
X146147637Y-78896749D02*
X146147637Y-79015797D01*
X146147637Y-79015797D02*
X146171447Y-79063416D01*
X146171447Y-79063416D02*
X146195256Y-79087226D01*
X146195256Y-79087226D02*
X146242875Y-79111035D01*
X146242875Y-79111035D02*
X146385732Y-79111035D01*
X146385732Y-79111035D02*
X146433351Y-79087226D01*
X146433351Y-79087226D02*
X146457161Y-79063416D01*
X145290495Y-78634845D02*
X145338114Y-78611035D01*
X145338114Y-78611035D02*
X145409543Y-78611035D01*
X145409543Y-78611035D02*
X145480971Y-78634845D01*
X145480971Y-78634845D02*
X145528590Y-78682464D01*
X145528590Y-78682464D02*
X145552400Y-78730083D01*
X145552400Y-78730083D02*
X145576209Y-78825321D01*
X145576209Y-78825321D02*
X145576209Y-78896749D01*
X145576209Y-78896749D02*
X145552400Y-78991987D01*
X145552400Y-78991987D02*
X145528590Y-79039606D01*
X145528590Y-79039606D02*
X145480971Y-79087226D01*
X145480971Y-79087226D02*
X145409543Y-79111035D01*
X145409543Y-79111035D02*
X145361924Y-79111035D01*
X145361924Y-79111035D02*
X145290495Y-79087226D01*
X145290495Y-79087226D02*
X145266686Y-79063416D01*
X145266686Y-79063416D02*
X145266686Y-78896749D01*
X145266686Y-78896749D02*
X145361924Y-78896749D01*
X145052400Y-79111035D02*
X145052400Y-78611035D01*
X145052400Y-78611035D02*
X144766686Y-79111035D01*
X144766686Y-79111035D02*
X144766686Y-78611035D01*
X144528590Y-79111035D02*
X144528590Y-78611035D01*
X144528590Y-78611035D02*
X144409542Y-78611035D01*
X144409542Y-78611035D02*
X144338114Y-78634845D01*
X144338114Y-78634845D02*
X144290495Y-78682464D01*
X144290495Y-78682464D02*
X144266685Y-78730083D01*
X144266685Y-78730083D02*
X144242876Y-78825321D01*
X144242876Y-78825321D02*
X144242876Y-78896749D01*
X144242876Y-78896749D02*
X144266685Y-78991987D01*
X144266685Y-78991987D02*
X144290495Y-79039606D01*
X144290495Y-79039606D02*
X144338114Y-79087226D01*
X144338114Y-79087226D02*
X144409542Y-79111035D01*
X144409542Y-79111035D02*
X144528590Y-79111035D01*
X158719058Y-79439817D02*
X158766677Y-79416007D01*
X158766677Y-79416007D02*
X158838106Y-79416007D01*
X158838106Y-79416007D02*
X158909534Y-79439817D01*
X158909534Y-79439817D02*
X158957153Y-79487436D01*
X158957153Y-79487436D02*
X158980963Y-79535055D01*
X158980963Y-79535055D02*
X159004772Y-79630293D01*
X159004772Y-79630293D02*
X159004772Y-79701721D01*
X159004772Y-79701721D02*
X158980963Y-79796959D01*
X158980963Y-79796959D02*
X158957153Y-79844578D01*
X158957153Y-79844578D02*
X158909534Y-79892198D01*
X158909534Y-79892198D02*
X158838106Y-79916007D01*
X158838106Y-79916007D02*
X158790487Y-79916007D01*
X158790487Y-79916007D02*
X158719058Y-79892198D01*
X158719058Y-79892198D02*
X158695249Y-79868388D01*
X158695249Y-79868388D02*
X158695249Y-79701721D01*
X158695249Y-79701721D02*
X158790487Y-79701721D01*
X158480963Y-79916007D02*
X158480963Y-79416007D01*
X158480963Y-79416007D02*
X158290487Y-79416007D01*
X158290487Y-79416007D02*
X158242868Y-79439817D01*
X158242868Y-79439817D02*
X158219058Y-79463626D01*
X158219058Y-79463626D02*
X158195249Y-79511245D01*
X158195249Y-79511245D02*
X158195249Y-79582674D01*
X158195249Y-79582674D02*
X158219058Y-79630293D01*
X158219058Y-79630293D02*
X158242868Y-79654102D01*
X158242868Y-79654102D02*
X158290487Y-79677912D01*
X158290487Y-79677912D02*
X158480963Y-79677912D01*
X157719058Y-79916007D02*
X158004772Y-79916007D01*
X157861915Y-79916007D02*
X157861915Y-79416007D01*
X157861915Y-79416007D02*
X157909534Y-79487436D01*
X157909534Y-79487436D02*
X157957153Y-79535055D01*
X157957153Y-79535055D02*
X158004772Y-79558864D01*
X157433344Y-79630293D02*
X157480963Y-79606483D01*
X157480963Y-79606483D02*
X157504773Y-79582674D01*
X157504773Y-79582674D02*
X157528582Y-79535055D01*
X157528582Y-79535055D02*
X157528582Y-79511245D01*
X157528582Y-79511245D02*
X157504773Y-79463626D01*
X157504773Y-79463626D02*
X157480963Y-79439817D01*
X157480963Y-79439817D02*
X157433344Y-79416007D01*
X157433344Y-79416007D02*
X157338106Y-79416007D01*
X157338106Y-79416007D02*
X157290487Y-79439817D01*
X157290487Y-79439817D02*
X157266678Y-79463626D01*
X157266678Y-79463626D02*
X157242868Y-79511245D01*
X157242868Y-79511245D02*
X157242868Y-79535055D01*
X157242868Y-79535055D02*
X157266678Y-79582674D01*
X157266678Y-79582674D02*
X157290487Y-79606483D01*
X157290487Y-79606483D02*
X157338106Y-79630293D01*
X157338106Y-79630293D02*
X157433344Y-79630293D01*
X157433344Y-79630293D02*
X157480963Y-79654102D01*
X157480963Y-79654102D02*
X157504773Y-79677912D01*
X157504773Y-79677912D02*
X157528582Y-79725531D01*
X157528582Y-79725531D02*
X157528582Y-79820769D01*
X157528582Y-79820769D02*
X157504773Y-79868388D01*
X157504773Y-79868388D02*
X157480963Y-79892198D01*
X157480963Y-79892198D02*
X157433344Y-79916007D01*
X157433344Y-79916007D02*
X157338106Y-79916007D01*
X157338106Y-79916007D02*
X157290487Y-79892198D01*
X157290487Y-79892198D02*
X157266678Y-79868388D01*
X157266678Y-79868388D02*
X157242868Y-79820769D01*
X157242868Y-79820769D02*
X157242868Y-79725531D01*
X157242868Y-79725531D02*
X157266678Y-79677912D01*
X157266678Y-79677912D02*
X157290487Y-79654102D01*
X157290487Y-79654102D02*
X157338106Y-79630293D01*
X156385726Y-79439817D02*
X156433345Y-79416007D01*
X156433345Y-79416007D02*
X156504774Y-79416007D01*
X156504774Y-79416007D02*
X156576202Y-79439817D01*
X156576202Y-79439817D02*
X156623821Y-79487436D01*
X156623821Y-79487436D02*
X156647631Y-79535055D01*
X156647631Y-79535055D02*
X156671440Y-79630293D01*
X156671440Y-79630293D02*
X156671440Y-79701721D01*
X156671440Y-79701721D02*
X156647631Y-79796959D01*
X156647631Y-79796959D02*
X156623821Y-79844578D01*
X156623821Y-79844578D02*
X156576202Y-79892198D01*
X156576202Y-79892198D02*
X156504774Y-79916007D01*
X156504774Y-79916007D02*
X156457155Y-79916007D01*
X156457155Y-79916007D02*
X156385726Y-79892198D01*
X156385726Y-79892198D02*
X156361917Y-79868388D01*
X156361917Y-79868388D02*
X156361917Y-79701721D01*
X156361917Y-79701721D02*
X156457155Y-79701721D01*
X156147631Y-79916007D02*
X156147631Y-79416007D01*
X156147631Y-79416007D02*
X155957155Y-79416007D01*
X155957155Y-79416007D02*
X155909536Y-79439817D01*
X155909536Y-79439817D02*
X155885726Y-79463626D01*
X155885726Y-79463626D02*
X155861917Y-79511245D01*
X155861917Y-79511245D02*
X155861917Y-79582674D01*
X155861917Y-79582674D02*
X155885726Y-79630293D01*
X155885726Y-79630293D02*
X155909536Y-79654102D01*
X155909536Y-79654102D02*
X155957155Y-79677912D01*
X155957155Y-79677912D02*
X156147631Y-79677912D01*
X155385726Y-79916007D02*
X155671440Y-79916007D01*
X155528583Y-79916007D02*
X155528583Y-79416007D01*
X155528583Y-79416007D02*
X155576202Y-79487436D01*
X155576202Y-79487436D02*
X155623821Y-79535055D01*
X155623821Y-79535055D02*
X155671440Y-79558864D01*
X155147631Y-79916007D02*
X155052393Y-79916007D01*
X155052393Y-79916007D02*
X155004774Y-79892198D01*
X155004774Y-79892198D02*
X154980965Y-79868388D01*
X154980965Y-79868388D02*
X154933346Y-79796959D01*
X154933346Y-79796959D02*
X154909536Y-79701721D01*
X154909536Y-79701721D02*
X154909536Y-79511245D01*
X154909536Y-79511245D02*
X154933346Y-79463626D01*
X154933346Y-79463626D02*
X154957155Y-79439817D01*
X154957155Y-79439817D02*
X155004774Y-79416007D01*
X155004774Y-79416007D02*
X155100012Y-79416007D01*
X155100012Y-79416007D02*
X155147631Y-79439817D01*
X155147631Y-79439817D02*
X155171441Y-79463626D01*
X155171441Y-79463626D02*
X155195250Y-79511245D01*
X155195250Y-79511245D02*
X155195250Y-79630293D01*
X155195250Y-79630293D02*
X155171441Y-79677912D01*
X155171441Y-79677912D02*
X155147631Y-79701721D01*
X155147631Y-79701721D02*
X155100012Y-79725531D01*
X155100012Y-79725531D02*
X155004774Y-79725531D01*
X155004774Y-79725531D02*
X154957155Y-79701721D01*
X154957155Y-79701721D02*
X154933346Y-79677912D01*
X154933346Y-79677912D02*
X154909536Y-79630293D01*
X154052394Y-79439817D02*
X154100013Y-79416007D01*
X154100013Y-79416007D02*
X154171442Y-79416007D01*
X154171442Y-79416007D02*
X154242870Y-79439817D01*
X154242870Y-79439817D02*
X154290489Y-79487436D01*
X154290489Y-79487436D02*
X154314299Y-79535055D01*
X154314299Y-79535055D02*
X154338108Y-79630293D01*
X154338108Y-79630293D02*
X154338108Y-79701721D01*
X154338108Y-79701721D02*
X154314299Y-79796959D01*
X154314299Y-79796959D02*
X154290489Y-79844578D01*
X154290489Y-79844578D02*
X154242870Y-79892198D01*
X154242870Y-79892198D02*
X154171442Y-79916007D01*
X154171442Y-79916007D02*
X154123823Y-79916007D01*
X154123823Y-79916007D02*
X154052394Y-79892198D01*
X154052394Y-79892198D02*
X154028585Y-79868388D01*
X154028585Y-79868388D02*
X154028585Y-79701721D01*
X154028585Y-79701721D02*
X154123823Y-79701721D01*
X153814299Y-79916007D02*
X153814299Y-79416007D01*
X153814299Y-79416007D02*
X153623823Y-79416007D01*
X153623823Y-79416007D02*
X153576204Y-79439817D01*
X153576204Y-79439817D02*
X153552394Y-79463626D01*
X153552394Y-79463626D02*
X153528585Y-79511245D01*
X153528585Y-79511245D02*
X153528585Y-79582674D01*
X153528585Y-79582674D02*
X153552394Y-79630293D01*
X153552394Y-79630293D02*
X153576204Y-79654102D01*
X153576204Y-79654102D02*
X153623823Y-79677912D01*
X153623823Y-79677912D02*
X153814299Y-79677912D01*
X153338108Y-79463626D02*
X153314299Y-79439817D01*
X153314299Y-79439817D02*
X153266680Y-79416007D01*
X153266680Y-79416007D02*
X153147632Y-79416007D01*
X153147632Y-79416007D02*
X153100013Y-79439817D01*
X153100013Y-79439817D02*
X153076204Y-79463626D01*
X153076204Y-79463626D02*
X153052394Y-79511245D01*
X153052394Y-79511245D02*
X153052394Y-79558864D01*
X153052394Y-79558864D02*
X153076204Y-79630293D01*
X153076204Y-79630293D02*
X153361918Y-79916007D01*
X153361918Y-79916007D02*
X153052394Y-79916007D01*
X152742871Y-79416007D02*
X152695252Y-79416007D01*
X152695252Y-79416007D02*
X152647633Y-79439817D01*
X152647633Y-79439817D02*
X152623823Y-79463626D01*
X152623823Y-79463626D02*
X152600014Y-79511245D01*
X152600014Y-79511245D02*
X152576204Y-79606483D01*
X152576204Y-79606483D02*
X152576204Y-79725531D01*
X152576204Y-79725531D02*
X152600014Y-79820769D01*
X152600014Y-79820769D02*
X152623823Y-79868388D01*
X152623823Y-79868388D02*
X152647633Y-79892198D01*
X152647633Y-79892198D02*
X152695252Y-79916007D01*
X152695252Y-79916007D02*
X152742871Y-79916007D01*
X152742871Y-79916007D02*
X152790490Y-79892198D01*
X152790490Y-79892198D02*
X152814299Y-79868388D01*
X152814299Y-79868388D02*
X152838109Y-79820769D01*
X152838109Y-79820769D02*
X152861918Y-79725531D01*
X152861918Y-79725531D02*
X152861918Y-79606483D01*
X152861918Y-79606483D02*
X152838109Y-79511245D01*
X152838109Y-79511245D02*
X152814299Y-79463626D01*
X152814299Y-79463626D02*
X152790490Y-79439817D01*
X152790490Y-79439817D02*
X152742871Y-79416007D01*
X151719062Y-79439817D02*
X151766681Y-79416007D01*
X151766681Y-79416007D02*
X151838110Y-79416007D01*
X151838110Y-79416007D02*
X151909538Y-79439817D01*
X151909538Y-79439817D02*
X151957157Y-79487436D01*
X151957157Y-79487436D02*
X151980967Y-79535055D01*
X151980967Y-79535055D02*
X152004776Y-79630293D01*
X152004776Y-79630293D02*
X152004776Y-79701721D01*
X152004776Y-79701721D02*
X151980967Y-79796959D01*
X151980967Y-79796959D02*
X151957157Y-79844578D01*
X151957157Y-79844578D02*
X151909538Y-79892198D01*
X151909538Y-79892198D02*
X151838110Y-79916007D01*
X151838110Y-79916007D02*
X151790491Y-79916007D01*
X151790491Y-79916007D02*
X151719062Y-79892198D01*
X151719062Y-79892198D02*
X151695253Y-79868388D01*
X151695253Y-79868388D02*
X151695253Y-79701721D01*
X151695253Y-79701721D02*
X151790491Y-79701721D01*
X151480967Y-79916007D02*
X151480967Y-79416007D01*
X151480967Y-79416007D02*
X151290491Y-79416007D01*
X151290491Y-79416007D02*
X151242872Y-79439817D01*
X151242872Y-79439817D02*
X151219062Y-79463626D01*
X151219062Y-79463626D02*
X151195253Y-79511245D01*
X151195253Y-79511245D02*
X151195253Y-79582674D01*
X151195253Y-79582674D02*
X151219062Y-79630293D01*
X151219062Y-79630293D02*
X151242872Y-79654102D01*
X151242872Y-79654102D02*
X151290491Y-79677912D01*
X151290491Y-79677912D02*
X151480967Y-79677912D01*
X150885729Y-79416007D02*
X150838110Y-79416007D01*
X150838110Y-79416007D02*
X150790491Y-79439817D01*
X150790491Y-79439817D02*
X150766681Y-79463626D01*
X150766681Y-79463626D02*
X150742872Y-79511245D01*
X150742872Y-79511245D02*
X150719062Y-79606483D01*
X150719062Y-79606483D02*
X150719062Y-79725531D01*
X150719062Y-79725531D02*
X150742872Y-79820769D01*
X150742872Y-79820769D02*
X150766681Y-79868388D01*
X150766681Y-79868388D02*
X150790491Y-79892198D01*
X150790491Y-79892198D02*
X150838110Y-79916007D01*
X150838110Y-79916007D02*
X150885729Y-79916007D01*
X150885729Y-79916007D02*
X150933348Y-79892198D01*
X150933348Y-79892198D02*
X150957157Y-79868388D01*
X150957157Y-79868388D02*
X150980967Y-79820769D01*
X150980967Y-79820769D02*
X151004776Y-79725531D01*
X151004776Y-79725531D02*
X151004776Y-79606483D01*
X151004776Y-79606483D02*
X150980967Y-79511245D01*
X150980967Y-79511245D02*
X150957157Y-79463626D01*
X150957157Y-79463626D02*
X150933348Y-79439817D01*
X150933348Y-79439817D02*
X150885729Y-79416007D01*
X150290491Y-79582674D02*
X150290491Y-79916007D01*
X150409539Y-79392198D02*
X150528586Y-79749340D01*
X150528586Y-79749340D02*
X150219063Y-79749340D01*
X149385730Y-79439817D02*
X149433349Y-79416007D01*
X149433349Y-79416007D02*
X149504778Y-79416007D01*
X149504778Y-79416007D02*
X149576206Y-79439817D01*
X149576206Y-79439817D02*
X149623825Y-79487436D01*
X149623825Y-79487436D02*
X149647635Y-79535055D01*
X149647635Y-79535055D02*
X149671444Y-79630293D01*
X149671444Y-79630293D02*
X149671444Y-79701721D01*
X149671444Y-79701721D02*
X149647635Y-79796959D01*
X149647635Y-79796959D02*
X149623825Y-79844578D01*
X149623825Y-79844578D02*
X149576206Y-79892198D01*
X149576206Y-79892198D02*
X149504778Y-79916007D01*
X149504778Y-79916007D02*
X149457159Y-79916007D01*
X149457159Y-79916007D02*
X149385730Y-79892198D01*
X149385730Y-79892198D02*
X149361921Y-79868388D01*
X149361921Y-79868388D02*
X149361921Y-79701721D01*
X149361921Y-79701721D02*
X149457159Y-79701721D01*
X149147635Y-79916007D02*
X149147635Y-79416007D01*
X149147635Y-79416007D02*
X148957159Y-79416007D01*
X148957159Y-79416007D02*
X148909540Y-79439817D01*
X148909540Y-79439817D02*
X148885730Y-79463626D01*
X148885730Y-79463626D02*
X148861921Y-79511245D01*
X148861921Y-79511245D02*
X148861921Y-79582674D01*
X148861921Y-79582674D02*
X148885730Y-79630293D01*
X148885730Y-79630293D02*
X148909540Y-79654102D01*
X148909540Y-79654102D02*
X148957159Y-79677912D01*
X148957159Y-79677912D02*
X149147635Y-79677912D01*
X148552397Y-79416007D02*
X148504778Y-79416007D01*
X148504778Y-79416007D02*
X148457159Y-79439817D01*
X148457159Y-79439817D02*
X148433349Y-79463626D01*
X148433349Y-79463626D02*
X148409540Y-79511245D01*
X148409540Y-79511245D02*
X148385730Y-79606483D01*
X148385730Y-79606483D02*
X148385730Y-79725531D01*
X148385730Y-79725531D02*
X148409540Y-79820769D01*
X148409540Y-79820769D02*
X148433349Y-79868388D01*
X148433349Y-79868388D02*
X148457159Y-79892198D01*
X148457159Y-79892198D02*
X148504778Y-79916007D01*
X148504778Y-79916007D02*
X148552397Y-79916007D01*
X148552397Y-79916007D02*
X148600016Y-79892198D01*
X148600016Y-79892198D02*
X148623825Y-79868388D01*
X148623825Y-79868388D02*
X148647635Y-79820769D01*
X148647635Y-79820769D02*
X148671444Y-79725531D01*
X148671444Y-79725531D02*
X148671444Y-79606483D01*
X148671444Y-79606483D02*
X148647635Y-79511245D01*
X148647635Y-79511245D02*
X148623825Y-79463626D01*
X148623825Y-79463626D02*
X148600016Y-79439817D01*
X148600016Y-79439817D02*
X148552397Y-79416007D01*
X148147635Y-79916007D02*
X148052397Y-79916007D01*
X148052397Y-79916007D02*
X148004778Y-79892198D01*
X148004778Y-79892198D02*
X147980969Y-79868388D01*
X147980969Y-79868388D02*
X147933350Y-79796959D01*
X147933350Y-79796959D02*
X147909540Y-79701721D01*
X147909540Y-79701721D02*
X147909540Y-79511245D01*
X147909540Y-79511245D02*
X147933350Y-79463626D01*
X147933350Y-79463626D02*
X147957159Y-79439817D01*
X147957159Y-79439817D02*
X148004778Y-79416007D01*
X148004778Y-79416007D02*
X148100016Y-79416007D01*
X148100016Y-79416007D02*
X148147635Y-79439817D01*
X148147635Y-79439817D02*
X148171445Y-79463626D01*
X148171445Y-79463626D02*
X148195254Y-79511245D01*
X148195254Y-79511245D02*
X148195254Y-79630293D01*
X148195254Y-79630293D02*
X148171445Y-79677912D01*
X148171445Y-79677912D02*
X148147635Y-79701721D01*
X148147635Y-79701721D02*
X148100016Y-79725531D01*
X148100016Y-79725531D02*
X148004778Y-79725531D01*
X148004778Y-79725531D02*
X147957159Y-79701721D01*
X147957159Y-79701721D02*
X147933350Y-79677912D01*
X147933350Y-79677912D02*
X147909540Y-79630293D01*
X147052398Y-79439817D02*
X147100017Y-79416007D01*
X147100017Y-79416007D02*
X147171446Y-79416007D01*
X147171446Y-79416007D02*
X147242874Y-79439817D01*
X147242874Y-79439817D02*
X147290493Y-79487436D01*
X147290493Y-79487436D02*
X147314303Y-79535055D01*
X147314303Y-79535055D02*
X147338112Y-79630293D01*
X147338112Y-79630293D02*
X147338112Y-79701721D01*
X147338112Y-79701721D02*
X147314303Y-79796959D01*
X147314303Y-79796959D02*
X147290493Y-79844578D01*
X147290493Y-79844578D02*
X147242874Y-79892198D01*
X147242874Y-79892198D02*
X147171446Y-79916007D01*
X147171446Y-79916007D02*
X147123827Y-79916007D01*
X147123827Y-79916007D02*
X147052398Y-79892198D01*
X147052398Y-79892198D02*
X147028589Y-79868388D01*
X147028589Y-79868388D02*
X147028589Y-79701721D01*
X147028589Y-79701721D02*
X147123827Y-79701721D01*
X146814303Y-79916007D02*
X146814303Y-79416007D01*
X146814303Y-79416007D02*
X146623827Y-79416007D01*
X146623827Y-79416007D02*
X146576208Y-79439817D01*
X146576208Y-79439817D02*
X146552398Y-79463626D01*
X146552398Y-79463626D02*
X146528589Y-79511245D01*
X146528589Y-79511245D02*
X146528589Y-79582674D01*
X146528589Y-79582674D02*
X146552398Y-79630293D01*
X146552398Y-79630293D02*
X146576208Y-79654102D01*
X146576208Y-79654102D02*
X146623827Y-79677912D01*
X146623827Y-79677912D02*
X146814303Y-79677912D01*
X146219065Y-79416007D02*
X146171446Y-79416007D01*
X146171446Y-79416007D02*
X146123827Y-79439817D01*
X146123827Y-79439817D02*
X146100017Y-79463626D01*
X146100017Y-79463626D02*
X146076208Y-79511245D01*
X146076208Y-79511245D02*
X146052398Y-79606483D01*
X146052398Y-79606483D02*
X146052398Y-79725531D01*
X146052398Y-79725531D02*
X146076208Y-79820769D01*
X146076208Y-79820769D02*
X146100017Y-79868388D01*
X146100017Y-79868388D02*
X146123827Y-79892198D01*
X146123827Y-79892198D02*
X146171446Y-79916007D01*
X146171446Y-79916007D02*
X146219065Y-79916007D01*
X146219065Y-79916007D02*
X146266684Y-79892198D01*
X146266684Y-79892198D02*
X146290493Y-79868388D01*
X146290493Y-79868388D02*
X146314303Y-79820769D01*
X146314303Y-79820769D02*
X146338112Y-79725531D01*
X146338112Y-79725531D02*
X146338112Y-79606483D01*
X146338112Y-79606483D02*
X146314303Y-79511245D01*
X146314303Y-79511245D02*
X146290493Y-79463626D01*
X146290493Y-79463626D02*
X146266684Y-79439817D01*
X146266684Y-79439817D02*
X146219065Y-79416007D01*
X145766684Y-79630293D02*
X145814303Y-79606483D01*
X145814303Y-79606483D02*
X145838113Y-79582674D01*
X145838113Y-79582674D02*
X145861922Y-79535055D01*
X145861922Y-79535055D02*
X145861922Y-79511245D01*
X145861922Y-79511245D02*
X145838113Y-79463626D01*
X145838113Y-79463626D02*
X145814303Y-79439817D01*
X145814303Y-79439817D02*
X145766684Y-79416007D01*
X145766684Y-79416007D02*
X145671446Y-79416007D01*
X145671446Y-79416007D02*
X145623827Y-79439817D01*
X145623827Y-79439817D02*
X145600018Y-79463626D01*
X145600018Y-79463626D02*
X145576208Y-79511245D01*
X145576208Y-79511245D02*
X145576208Y-79535055D01*
X145576208Y-79535055D02*
X145600018Y-79582674D01*
X145600018Y-79582674D02*
X145623827Y-79606483D01*
X145623827Y-79606483D02*
X145671446Y-79630293D01*
X145671446Y-79630293D02*
X145766684Y-79630293D01*
X145766684Y-79630293D02*
X145814303Y-79654102D01*
X145814303Y-79654102D02*
X145838113Y-79677912D01*
X145838113Y-79677912D02*
X145861922Y-79725531D01*
X145861922Y-79725531D02*
X145861922Y-79820769D01*
X145861922Y-79820769D02*
X145838113Y-79868388D01*
X145838113Y-79868388D02*
X145814303Y-79892198D01*
X145814303Y-79892198D02*
X145766684Y-79916007D01*
X145766684Y-79916007D02*
X145671446Y-79916007D01*
X145671446Y-79916007D02*
X145623827Y-79892198D01*
X145623827Y-79892198D02*
X145600018Y-79868388D01*
X145600018Y-79868388D02*
X145576208Y-79820769D01*
X145576208Y-79820769D02*
X145576208Y-79725531D01*
X145576208Y-79725531D02*
X145600018Y-79677912D01*
X145600018Y-79677912D02*
X145623827Y-79654102D01*
X145623827Y-79654102D02*
X145671446Y-79630293D01*
X144742876Y-79416007D02*
X144980971Y-79416007D01*
X144980971Y-79416007D02*
X145004780Y-79654102D01*
X145004780Y-79654102D02*
X144980971Y-79630293D01*
X144980971Y-79630293D02*
X144933352Y-79606483D01*
X144933352Y-79606483D02*
X144814304Y-79606483D01*
X144814304Y-79606483D02*
X144766685Y-79630293D01*
X144766685Y-79630293D02*
X144742876Y-79654102D01*
X144742876Y-79654102D02*
X144719066Y-79701721D01*
X144719066Y-79701721D02*
X144719066Y-79820769D01*
X144719066Y-79820769D02*
X144742876Y-79868388D01*
X144742876Y-79868388D02*
X144766685Y-79892198D01*
X144766685Y-79892198D02*
X144814304Y-79916007D01*
X144814304Y-79916007D02*
X144933352Y-79916007D01*
X144933352Y-79916007D02*
X144980971Y-79892198D01*
X144980971Y-79892198D02*
X145004780Y-79868388D01*
X144576209Y-79416007D02*
X144409543Y-79916007D01*
X144409543Y-79916007D02*
X144242876Y-79416007D01*
X159063643Y-112911750D02*
X158992215Y-112935559D01*
X158992215Y-112935559D02*
X158873167Y-112935559D01*
X158873167Y-112935559D02*
X158825548Y-112911750D01*
X158825548Y-112911750D02*
X158801739Y-112887940D01*
X158801739Y-112887940D02*
X158777929Y-112840321D01*
X158777929Y-112840321D02*
X158777929Y-112792702D01*
X158777929Y-112792702D02*
X158801739Y-112745083D01*
X158801739Y-112745083D02*
X158825548Y-112721273D01*
X158825548Y-112721273D02*
X158873167Y-112697464D01*
X158873167Y-112697464D02*
X158968405Y-112673654D01*
X158968405Y-112673654D02*
X159016024Y-112649845D01*
X159016024Y-112649845D02*
X159039834Y-112626035D01*
X159039834Y-112626035D02*
X159063643Y-112578416D01*
X159063643Y-112578416D02*
X159063643Y-112530797D01*
X159063643Y-112530797D02*
X159039834Y-112483178D01*
X159039834Y-112483178D02*
X159016024Y-112459369D01*
X159016024Y-112459369D02*
X158968405Y-112435559D01*
X158968405Y-112435559D02*
X158849358Y-112435559D01*
X158849358Y-112435559D02*
X158777929Y-112459369D01*
X158635072Y-112435559D02*
X158349358Y-112435559D01*
X158492215Y-112935559D02*
X158492215Y-112435559D01*
X158206501Y-112792702D02*
X157968406Y-112792702D01*
X158254120Y-112935559D02*
X158087454Y-112435559D01*
X158087454Y-112435559D02*
X157920787Y-112935559D01*
X157825549Y-112435559D02*
X157539835Y-112435559D01*
X157682692Y-112935559D02*
X157682692Y-112435559D01*
X155968408Y-112459369D02*
X156016027Y-112435559D01*
X156016027Y-112435559D02*
X156087456Y-112435559D01*
X156087456Y-112435559D02*
X156158884Y-112459369D01*
X156158884Y-112459369D02*
X156206503Y-112506988D01*
X156206503Y-112506988D02*
X156230313Y-112554607D01*
X156230313Y-112554607D02*
X156254122Y-112649845D01*
X156254122Y-112649845D02*
X156254122Y-112721273D01*
X156254122Y-112721273D02*
X156230313Y-112816511D01*
X156230313Y-112816511D02*
X156206503Y-112864130D01*
X156206503Y-112864130D02*
X156158884Y-112911750D01*
X156158884Y-112911750D02*
X156087456Y-112935559D01*
X156087456Y-112935559D02*
X156039837Y-112935559D01*
X156039837Y-112935559D02*
X155968408Y-112911750D01*
X155968408Y-112911750D02*
X155944599Y-112887940D01*
X155944599Y-112887940D02*
X155944599Y-112721273D01*
X155944599Y-112721273D02*
X156039837Y-112721273D01*
X155730313Y-112935559D02*
X155730313Y-112435559D01*
X155730313Y-112435559D02*
X155539837Y-112435559D01*
X155539837Y-112435559D02*
X155492218Y-112459369D01*
X155492218Y-112459369D02*
X155468408Y-112483178D01*
X155468408Y-112483178D02*
X155444599Y-112530797D01*
X155444599Y-112530797D02*
X155444599Y-112602226D01*
X155444599Y-112602226D02*
X155468408Y-112649845D01*
X155468408Y-112649845D02*
X155492218Y-112673654D01*
X155492218Y-112673654D02*
X155539837Y-112697464D01*
X155539837Y-112697464D02*
X155730313Y-112697464D01*
X155254122Y-112483178D02*
X155230313Y-112459369D01*
X155230313Y-112459369D02*
X155182694Y-112435559D01*
X155182694Y-112435559D02*
X155063646Y-112435559D01*
X155063646Y-112435559D02*
X155016027Y-112459369D01*
X155016027Y-112459369D02*
X154992218Y-112483178D01*
X154992218Y-112483178D02*
X154968408Y-112530797D01*
X154968408Y-112530797D02*
X154968408Y-112578416D01*
X154968408Y-112578416D02*
X154992218Y-112649845D01*
X154992218Y-112649845D02*
X155277932Y-112935559D01*
X155277932Y-112935559D02*
X154968408Y-112935559D01*
X153349362Y-112459369D02*
X153396981Y-112435559D01*
X153396981Y-112435559D02*
X153468410Y-112435559D01*
X153468410Y-112435559D02*
X153539838Y-112459369D01*
X153539838Y-112459369D02*
X153587457Y-112506988D01*
X153587457Y-112506988D02*
X153611267Y-112554607D01*
X153611267Y-112554607D02*
X153635076Y-112649845D01*
X153635076Y-112649845D02*
X153635076Y-112721273D01*
X153635076Y-112721273D02*
X153611267Y-112816511D01*
X153611267Y-112816511D02*
X153587457Y-112864130D01*
X153587457Y-112864130D02*
X153539838Y-112911750D01*
X153539838Y-112911750D02*
X153468410Y-112935559D01*
X153468410Y-112935559D02*
X153420791Y-112935559D01*
X153420791Y-112935559D02*
X153349362Y-112911750D01*
X153349362Y-112911750D02*
X153325553Y-112887940D01*
X153325553Y-112887940D02*
X153325553Y-112721273D01*
X153325553Y-112721273D02*
X153420791Y-112721273D01*
X153111267Y-112935559D02*
X153111267Y-112435559D01*
X153111267Y-112435559D02*
X152920791Y-112435559D01*
X152920791Y-112435559D02*
X152873172Y-112459369D01*
X152873172Y-112459369D02*
X152849362Y-112483178D01*
X152849362Y-112483178D02*
X152825553Y-112530797D01*
X152825553Y-112530797D02*
X152825553Y-112602226D01*
X152825553Y-112602226D02*
X152849362Y-112649845D01*
X152849362Y-112649845D02*
X152873172Y-112673654D01*
X152873172Y-112673654D02*
X152920791Y-112697464D01*
X152920791Y-112697464D02*
X153111267Y-112697464D01*
X152349362Y-112935559D02*
X152635076Y-112935559D01*
X152492219Y-112935559D02*
X152492219Y-112435559D01*
X152492219Y-112435559D02*
X152539838Y-112506988D01*
X152539838Y-112506988D02*
X152587457Y-112554607D01*
X152587457Y-112554607D02*
X152635076Y-112578416D01*
X150730316Y-112459369D02*
X150777935Y-112435559D01*
X150777935Y-112435559D02*
X150849364Y-112435559D01*
X150849364Y-112435559D02*
X150920792Y-112459369D01*
X150920792Y-112459369D02*
X150968411Y-112506988D01*
X150968411Y-112506988D02*
X150992221Y-112554607D01*
X150992221Y-112554607D02*
X151016030Y-112649845D01*
X151016030Y-112649845D02*
X151016030Y-112721273D01*
X151016030Y-112721273D02*
X150992221Y-112816511D01*
X150992221Y-112816511D02*
X150968411Y-112864130D01*
X150968411Y-112864130D02*
X150920792Y-112911750D01*
X150920792Y-112911750D02*
X150849364Y-112935559D01*
X150849364Y-112935559D02*
X150801745Y-112935559D01*
X150801745Y-112935559D02*
X150730316Y-112911750D01*
X150730316Y-112911750D02*
X150706507Y-112887940D01*
X150706507Y-112887940D02*
X150706507Y-112721273D01*
X150706507Y-112721273D02*
X150801745Y-112721273D01*
X150492221Y-112935559D02*
X150492221Y-112435559D01*
X150492221Y-112435559D02*
X150206507Y-112935559D01*
X150206507Y-112935559D02*
X150206507Y-112435559D01*
X149968411Y-112935559D02*
X149968411Y-112435559D01*
X149968411Y-112435559D02*
X149849363Y-112435559D01*
X149849363Y-112435559D02*
X149777935Y-112459369D01*
X149777935Y-112459369D02*
X149730316Y-112506988D01*
X149730316Y-112506988D02*
X149706506Y-112554607D01*
X149706506Y-112554607D02*
X149682697Y-112649845D01*
X149682697Y-112649845D02*
X149682697Y-112721273D01*
X149682697Y-112721273D02*
X149706506Y-112816511D01*
X149706506Y-112816511D02*
X149730316Y-112864130D01*
X149730316Y-112864130D02*
X149777935Y-112911750D01*
X149777935Y-112911750D02*
X149849363Y-112935559D01*
X149849363Y-112935559D02*
X149968411Y-112935559D01*
X148087460Y-112435559D02*
X148325555Y-112435559D01*
X148325555Y-112435559D02*
X148349364Y-112673654D01*
X148349364Y-112673654D02*
X148325555Y-112649845D01*
X148325555Y-112649845D02*
X148277936Y-112626035D01*
X148277936Y-112626035D02*
X148158888Y-112626035D01*
X148158888Y-112626035D02*
X148111269Y-112649845D01*
X148111269Y-112649845D02*
X148087460Y-112673654D01*
X148087460Y-112673654D02*
X148063650Y-112721273D01*
X148063650Y-112721273D02*
X148063650Y-112840321D01*
X148063650Y-112840321D02*
X148087460Y-112887940D01*
X148087460Y-112887940D02*
X148111269Y-112911750D01*
X148111269Y-112911750D02*
X148158888Y-112935559D01*
X148158888Y-112935559D02*
X148277936Y-112935559D01*
X148277936Y-112935559D02*
X148325555Y-112911750D01*
X148325555Y-112911750D02*
X148349364Y-112887940D01*
X147920793Y-112435559D02*
X147754127Y-112935559D01*
X147754127Y-112935559D02*
X147587460Y-112435559D01*
X146277938Y-112935559D02*
X146277938Y-112435559D01*
X145992224Y-112935559D02*
X146206509Y-112649845D01*
X145992224Y-112435559D02*
X146277938Y-112721273D01*
X145777938Y-112673654D02*
X145611271Y-112673654D01*
X145539843Y-112935559D02*
X145777938Y-112935559D01*
X145777938Y-112935559D02*
X145777938Y-112435559D01*
X145777938Y-112435559D02*
X145539843Y-112435559D01*
X145230319Y-112697464D02*
X145230319Y-112935559D01*
X145396985Y-112435559D02*
X145230319Y-112697464D01*
X145230319Y-112697464D02*
X145063652Y-112435559D01*
X137645858Y-94152533D02*
X137645858Y-94319200D01*
X137907763Y-94390628D02*
X137907763Y-94152533D01*
X137907763Y-94152533D02*
X137407763Y-94152533D01*
X137407763Y-94152533D02*
X137407763Y-94390628D01*
X137883954Y-94581105D02*
X137907763Y-94652533D01*
X137907763Y-94652533D02*
X137907763Y-94771581D01*
X137907763Y-94771581D02*
X137883954Y-94819200D01*
X137883954Y-94819200D02*
X137860144Y-94843009D01*
X137860144Y-94843009D02*
X137812525Y-94866819D01*
X137812525Y-94866819D02*
X137764906Y-94866819D01*
X137764906Y-94866819D02*
X137717287Y-94843009D01*
X137717287Y-94843009D02*
X137693477Y-94819200D01*
X137693477Y-94819200D02*
X137669668Y-94771581D01*
X137669668Y-94771581D02*
X137645858Y-94676343D01*
X137645858Y-94676343D02*
X137622049Y-94628724D01*
X137622049Y-94628724D02*
X137598239Y-94604914D01*
X137598239Y-94604914D02*
X137550620Y-94581105D01*
X137550620Y-94581105D02*
X137503001Y-94581105D01*
X137503001Y-94581105D02*
X137455382Y-94604914D01*
X137455382Y-94604914D02*
X137431573Y-94628724D01*
X137431573Y-94628724D02*
X137407763Y-94676343D01*
X137407763Y-94676343D02*
X137407763Y-94795390D01*
X137407763Y-94795390D02*
X137431573Y-94866819D01*
X137907763Y-95081104D02*
X137407763Y-95081104D01*
X137407763Y-95081104D02*
X137407763Y-95271580D01*
X137407763Y-95271580D02*
X137431573Y-95319199D01*
X137431573Y-95319199D02*
X137455382Y-95343009D01*
X137455382Y-95343009D02*
X137503001Y-95366818D01*
X137503001Y-95366818D02*
X137574430Y-95366818D01*
X137574430Y-95366818D02*
X137622049Y-95343009D01*
X137622049Y-95343009D02*
X137645858Y-95319199D01*
X137645858Y-95319199D02*
X137669668Y-95271580D01*
X137669668Y-95271580D02*
X137669668Y-95081104D01*
X137407763Y-95533485D02*
X137407763Y-95843009D01*
X137407763Y-95843009D02*
X137598239Y-95676342D01*
X137598239Y-95676342D02*
X137598239Y-95747771D01*
X137598239Y-95747771D02*
X137622049Y-95795390D01*
X137622049Y-95795390D02*
X137645858Y-95819199D01*
X137645858Y-95819199D02*
X137693477Y-95843009D01*
X137693477Y-95843009D02*
X137812525Y-95843009D01*
X137812525Y-95843009D02*
X137860144Y-95819199D01*
X137860144Y-95819199D02*
X137883954Y-95795390D01*
X137883954Y-95795390D02*
X137907763Y-95747771D01*
X137907763Y-95747771D02*
X137907763Y-95604914D01*
X137907763Y-95604914D02*
X137883954Y-95557295D01*
X137883954Y-95557295D02*
X137860144Y-95533485D01*
X137455382Y-96033485D02*
X137431573Y-96057294D01*
X137431573Y-96057294D02*
X137407763Y-96104913D01*
X137407763Y-96104913D02*
X137407763Y-96223961D01*
X137407763Y-96223961D02*
X137431573Y-96271580D01*
X137431573Y-96271580D02*
X137455382Y-96295389D01*
X137455382Y-96295389D02*
X137503001Y-96319199D01*
X137503001Y-96319199D02*
X137550620Y-96319199D01*
X137550620Y-96319199D02*
X137622049Y-96295389D01*
X137622049Y-96295389D02*
X137907763Y-96009675D01*
X137907763Y-96009675D02*
X137907763Y-96319199D01*
X137860144Y-96819198D02*
X137883954Y-96795389D01*
X137883954Y-96795389D02*
X137907763Y-96723960D01*
X137907763Y-96723960D02*
X137907763Y-96676341D01*
X137907763Y-96676341D02*
X137883954Y-96604913D01*
X137883954Y-96604913D02*
X137836334Y-96557294D01*
X137836334Y-96557294D02*
X137788715Y-96533484D01*
X137788715Y-96533484D02*
X137693477Y-96509675D01*
X137693477Y-96509675D02*
X137622049Y-96509675D01*
X137622049Y-96509675D02*
X137526811Y-96533484D01*
X137526811Y-96533484D02*
X137479192Y-96557294D01*
X137479192Y-96557294D02*
X137431573Y-96604913D01*
X137431573Y-96604913D02*
X137407763Y-96676341D01*
X137407763Y-96676341D02*
X137407763Y-96723960D01*
X137407763Y-96723960D02*
X137431573Y-96795389D01*
X137431573Y-96795389D02*
X137455382Y-96819198D01*
X137407763Y-96985865D02*
X137407763Y-97295389D01*
X137407763Y-97295389D02*
X137598239Y-97128722D01*
X137598239Y-97128722D02*
X137598239Y-97200151D01*
X137598239Y-97200151D02*
X137622049Y-97247770D01*
X137622049Y-97247770D02*
X137645858Y-97271579D01*
X137645858Y-97271579D02*
X137693477Y-97295389D01*
X137693477Y-97295389D02*
X137812525Y-97295389D01*
X137812525Y-97295389D02*
X137860144Y-97271579D01*
X137860144Y-97271579D02*
X137883954Y-97247770D01*
X137883954Y-97247770D02*
X137907763Y-97200151D01*
X137907763Y-97200151D02*
X137907763Y-97057294D01*
X137907763Y-97057294D02*
X137883954Y-97009675D01*
X137883954Y-97009675D02*
X137860144Y-96985865D01*
X137883954Y-97866817D02*
X137907763Y-97938245D01*
X137907763Y-97938245D02*
X137907763Y-98057293D01*
X137907763Y-98057293D02*
X137883954Y-98104912D01*
X137883954Y-98104912D02*
X137860144Y-98128721D01*
X137860144Y-98128721D02*
X137812525Y-98152531D01*
X137812525Y-98152531D02*
X137764906Y-98152531D01*
X137764906Y-98152531D02*
X137717287Y-98128721D01*
X137717287Y-98128721D02*
X137693477Y-98104912D01*
X137693477Y-98104912D02*
X137669668Y-98057293D01*
X137669668Y-98057293D02*
X137645858Y-97962055D01*
X137645858Y-97962055D02*
X137622049Y-97914436D01*
X137622049Y-97914436D02*
X137598239Y-97890626D01*
X137598239Y-97890626D02*
X137550620Y-97866817D01*
X137550620Y-97866817D02*
X137503001Y-97866817D01*
X137503001Y-97866817D02*
X137455382Y-97890626D01*
X137455382Y-97890626D02*
X137431573Y-97914436D01*
X137431573Y-97914436D02*
X137407763Y-97962055D01*
X137407763Y-97962055D02*
X137407763Y-98081102D01*
X137407763Y-98081102D02*
X137431573Y-98152531D01*
X137883954Y-98557292D02*
X137907763Y-98509673D01*
X137907763Y-98509673D02*
X137907763Y-98414435D01*
X137907763Y-98414435D02*
X137883954Y-98366816D01*
X137883954Y-98366816D02*
X137836334Y-98343007D01*
X137836334Y-98343007D02*
X137645858Y-98343007D01*
X137645858Y-98343007D02*
X137598239Y-98366816D01*
X137598239Y-98366816D02*
X137574430Y-98414435D01*
X137574430Y-98414435D02*
X137574430Y-98509673D01*
X137574430Y-98509673D02*
X137598239Y-98557292D01*
X137598239Y-98557292D02*
X137645858Y-98581102D01*
X137645858Y-98581102D02*
X137693477Y-98581102D01*
X137693477Y-98581102D02*
X137741096Y-98343007D01*
X137883954Y-98985863D02*
X137907763Y-98938244D01*
X137907763Y-98938244D02*
X137907763Y-98843006D01*
X137907763Y-98843006D02*
X137883954Y-98795387D01*
X137883954Y-98795387D02*
X137836334Y-98771578D01*
X137836334Y-98771578D02*
X137645858Y-98771578D01*
X137645858Y-98771578D02*
X137598239Y-98795387D01*
X137598239Y-98795387D02*
X137574430Y-98843006D01*
X137574430Y-98843006D02*
X137574430Y-98938244D01*
X137574430Y-98938244D02*
X137598239Y-98985863D01*
X137598239Y-98985863D02*
X137645858Y-99009673D01*
X137645858Y-99009673D02*
X137693477Y-99009673D01*
X137693477Y-99009673D02*
X137741096Y-98771578D01*
X137907763Y-99438244D02*
X137407763Y-99438244D01*
X137883954Y-99438244D02*
X137907763Y-99390625D01*
X137907763Y-99390625D02*
X137907763Y-99295387D01*
X137907763Y-99295387D02*
X137883954Y-99247768D01*
X137883954Y-99247768D02*
X137860144Y-99223958D01*
X137860144Y-99223958D02*
X137812525Y-99200149D01*
X137812525Y-99200149D02*
X137669668Y-99200149D01*
X137669668Y-99200149D02*
X137622049Y-99223958D01*
X137622049Y-99223958D02*
X137598239Y-99247768D01*
X137598239Y-99247768D02*
X137574430Y-99295387D01*
X137574430Y-99295387D02*
X137574430Y-99390625D01*
X137574430Y-99390625D02*
X137598239Y-99438244D01*
D12*
X137161974Y-79330107D02*
X137209593Y-79377727D01*
X137209593Y-79377727D02*
X137352450Y-79425346D01*
X137352450Y-79425346D02*
X137447688Y-79425346D01*
X137447688Y-79425346D02*
X137590545Y-79377727D01*
X137590545Y-79377727D02*
X137685783Y-79282488D01*
X137685783Y-79282488D02*
X137733402Y-79187250D01*
X137733402Y-79187250D02*
X137781021Y-78996774D01*
X137781021Y-78996774D02*
X137781021Y-78853917D01*
X137781021Y-78853917D02*
X137733402Y-78663441D01*
X137733402Y-78663441D02*
X137685783Y-78568203D01*
X137685783Y-78568203D02*
X137590545Y-78472965D01*
X137590545Y-78472965D02*
X137447688Y-78425346D01*
X137447688Y-78425346D02*
X137352450Y-78425346D01*
X137352450Y-78425346D02*
X137209593Y-78472965D01*
X137209593Y-78472965D02*
X137161974Y-78520584D01*
X136781021Y-78520584D02*
X136733402Y-78472965D01*
X136733402Y-78472965D02*
X136638164Y-78425346D01*
X136638164Y-78425346D02*
X136400069Y-78425346D01*
X136400069Y-78425346D02*
X136304831Y-78472965D01*
X136304831Y-78472965D02*
X136257212Y-78520584D01*
X136257212Y-78520584D02*
X136209593Y-78615822D01*
X136209593Y-78615822D02*
X136209593Y-78711060D01*
X136209593Y-78711060D02*
X136257212Y-78853917D01*
X136257212Y-78853917D02*
X136828640Y-79425346D01*
X136828640Y-79425346D02*
X136209593Y-79425346D01*
D13*
X138890820Y-88264437D02*
X139524127Y-88264437D01*
X139524127Y-88264437D02*
X139598633Y-88301691D01*
X139598633Y-88301691D02*
X139635887Y-88338944D01*
X139635887Y-88338944D02*
X139673140Y-88413451D01*
X139673140Y-88413451D02*
X139673140Y-88562464D01*
X139673140Y-88562464D02*
X139635887Y-88636971D01*
X139635887Y-88636971D02*
X139598633Y-88674224D01*
X139598633Y-88674224D02*
X139524127Y-88711477D01*
X139524127Y-88711477D02*
X138890820Y-88711477D01*
X138965327Y-89046757D02*
X138928073Y-89084010D01*
X138928073Y-89084010D02*
X138890820Y-89158517D01*
X138890820Y-89158517D02*
X138890820Y-89344784D01*
X138890820Y-89344784D02*
X138928073Y-89419290D01*
X138928073Y-89419290D02*
X138965327Y-89456544D01*
X138965327Y-89456544D02*
X139039833Y-89493797D01*
X139039833Y-89493797D02*
X139114340Y-89493797D01*
X139114340Y-89493797D02*
X139226100Y-89456544D01*
X139226100Y-89456544D02*
X139673140Y-89009504D01*
X139673140Y-89009504D02*
X139673140Y-89493797D01*
D12*
X161486188Y-110048615D02*
X161486188Y-110762900D01*
X161486188Y-110762900D02*
X161533807Y-110905757D01*
X161533807Y-110905757D02*
X161629045Y-111000996D01*
X161629045Y-111000996D02*
X161771902Y-111048615D01*
X161771902Y-111048615D02*
X161867140Y-111048615D01*
X161057616Y-110143853D02*
X161009997Y-110096234D01*
X161009997Y-110096234D02*
X160914759Y-110048615D01*
X160914759Y-110048615D02*
X160676664Y-110048615D01*
X160676664Y-110048615D02*
X160581426Y-110096234D01*
X160581426Y-110096234D02*
X160533807Y-110143853D01*
X160533807Y-110143853D02*
X160486188Y-110239091D01*
X160486188Y-110239091D02*
X160486188Y-110334329D01*
X160486188Y-110334329D02*
X160533807Y-110477186D01*
X160533807Y-110477186D02*
X161105235Y-111048615D01*
X161105235Y-111048615D02*
X160486188Y-111048615D01*
X141434811Y-84318615D02*
X141768144Y-83842424D01*
X142006239Y-84318615D02*
X142006239Y-83318615D01*
X142006239Y-83318615D02*
X141625287Y-83318615D01*
X141625287Y-83318615D02*
X141530049Y-83366234D01*
X141530049Y-83366234D02*
X141482430Y-83413853D01*
X141482430Y-83413853D02*
X141434811Y-83509091D01*
X141434811Y-83509091D02*
X141434811Y-83651948D01*
X141434811Y-83651948D02*
X141482430Y-83747186D01*
X141482430Y-83747186D02*
X141530049Y-83794805D01*
X141530049Y-83794805D02*
X141625287Y-83842424D01*
X141625287Y-83842424D02*
X142006239Y-83842424D01*
X140482430Y-84318615D02*
X141053858Y-84318615D01*
X140768144Y-84318615D02*
X140768144Y-83318615D01*
X140768144Y-83318615D02*
X140863382Y-83461472D01*
X140863382Y-83461472D02*
X140958620Y-83556710D01*
X140958620Y-83556710D02*
X141053858Y-83604329D01*
D14*
%TO.C,C2*%
X138158918Y-77233796D02*
X139358918Y-77233796D01*
X138158918Y-80689359D02*
X138158918Y-77233796D01*
X139223355Y-81753796D02*
X138158918Y-80689359D01*
X139223355Y-81753796D02*
X139358918Y-81753796D01*
X141614481Y-81753796D02*
X141478918Y-81753796D01*
X141614481Y-81753796D02*
X142678918Y-80689359D01*
X141978918Y-82493796D02*
X141978918Y-81993796D01*
X142228918Y-82243796D02*
X141728918Y-82243796D01*
X142678918Y-77233796D02*
X141478918Y-77233796D01*
X142678918Y-80689359D02*
X142678918Y-77233796D01*
D15*
%TO.C,U2*%
X138727429Y-92906715D02*
X138727429Y-100901987D01*
X139227429Y-101401987D02*
X140237429Y-101401987D01*
X140237429Y-92402987D02*
X139227157Y-92406715D01*
D16*
X140237429Y-103882987D02*
X140237429Y-89912987D01*
X159287429Y-88007987D02*
X142142429Y-88007987D01*
X159287429Y-105787987D02*
X142142429Y-105787987D01*
X161192429Y-89912987D02*
X161192429Y-103882987D01*
D15*
X138727429Y-92906715D02*
G75*
G02*
X139227157Y-92406714I500019J-18D01*
G01*
X139227429Y-101401987D02*
G75*
G02*
X138727429Y-100901987I0J500000D01*
G01*
D16*
X140233429Y-89912987D02*
G75*
G02*
X142138429Y-88007987I1905001J-1D01*
G01*
X142142429Y-105787987D02*
G75*
G02*
X140237429Y-103882987I0J1905000D01*
G01*
X159287429Y-88007987D02*
G75*
G02*
X161192429Y-89912987I-1J-1905001D01*
G01*
X161192429Y-103882987D02*
G75*
G02*
X159287429Y-105787987I-1905000J0D01*
G01*
D17*
X140905429Y-87797987D02*
G75*
G02*
X140401429Y-87797987I-252000J0D01*
G01*
X140401429Y-87797987D02*
G75*
G02*
X140905429Y-87797987I252000J0D01*
G01*
X141785429Y-88940987D02*
G75*
G02*
X141281429Y-88940987I-252000J0D01*
G01*
X141281429Y-88940987D02*
G75*
G02*
X141785429Y-88940987I252000J0D01*
G01*
D14*
%TO.C,J2*%
X144250000Y-112049726D02*
X144250000Y-109289726D01*
X157060000Y-109289726D02*
X144250000Y-109289726D01*
X157060000Y-112049726D02*
X144250000Y-112049726D01*
X157060000Y-112049726D02*
X157060000Y-109289726D01*
X158330000Y-112049726D02*
X159710000Y-112049726D01*
X159710000Y-112049726D02*
X159710000Y-110669726D01*
%TO.C,R1*%
X141522869Y-84771296D02*
X141013421Y-84771296D01*
X141522869Y-85816296D02*
X141013421Y-85816296D01*
%TD*%
M02*
