%TF.GenerationSoftware,KiCad,Pcbnew,9.0.5*%
%TF.CreationDate,2025-11-02T19:46:25-03:00*%
%TF.ProjectId,WCM_v1D,57434d5f-7631-4442-9e6b-696361645f70,rev?*%
%TF.SameCoordinates,Original*%
%TF.FileFunction,Soldermask,Top*%
%TF.FilePolarity,Negative*%
%FSLAX46Y46*%
G04 Gerber Fmt 4.6, Leading zero omitted, Abs format (unit mm)*
G04 Created by KiCad (PCBNEW 9.0.5) date 2025-11-02 19:46:25*
%MOMM*%
%LPD*%
G01*
G04 APERTURE LIST*
G04 Aperture macros list*
%AMRoundRect*
0 Rectangle with rounded corners*
0 $1 Rounding radius*
0 $2 $3 $4 $5 $6 $7 $8 $9 X,Y pos of 4 corners*
0 Add a 4 corners polygon primitive as box body*
4,1,4,$2,$3,$4,$5,$6,$7,$8,$9,$2,$3,0*
0 Add four circle primitives for the rounded corners*
1,1,$1+$1,$2,$3*
1,1,$1+$1,$4,$5*
1,1,$1+$1,$6,$7*
1,1,$1+$1,$8,$9*
0 Add four rect primitives between the rounded corners*
20,1,$1+$1,$2,$3,$4,$5,0*
20,1,$1+$1,$4,$5,$6,$7,0*
20,1,$1+$1,$6,$7,$8,$9,0*
20,1,$1+$1,$8,$9,$2,$3,0*%
G04 Aperture macros list end*
%ADD10RoundRect,0.102000X0.525000X-0.975000X0.525000X0.975000X-0.525000X0.975000X-0.525000X-0.975000X0*%
%ADD11R,1.050000X1.000000*%
%ADD12R,2.200000X1.050000*%
%ADD13R,1.000000X3.150000*%
%ADD14RoundRect,0.250000X0.550000X-1.050000X0.550000X1.050000X-0.550000X1.050000X-0.550000X-1.050000X0*%
%ADD15R,1.700000X1.700000*%
%ADD16C,1.700000*%
G04 APERTURE END LIST*
D10*
%TO.C,U1*%
X141975844Y-104358868D03*
X143975844Y-104358868D03*
X145975844Y-104358868D03*
X147975844Y-104358868D03*
X149975844Y-104358868D03*
X151975844Y-104358868D03*
X153975844Y-104358868D03*
X155975844Y-104358868D03*
X155975844Y-89558868D03*
X153975844Y-89558868D03*
X151975844Y-89558868D03*
X149975844Y-89558868D03*
X147975844Y-89558868D03*
X145975844Y-89558868D03*
X143975844Y-89558868D03*
X141975844Y-89558868D03*
%TD*%
D11*
%TO.C,ANT*%
X160775000Y-89625000D03*
D12*
X162300000Y-91100000D03*
D11*
X163825000Y-89625000D03*
D12*
X162300000Y-88150000D03*
%TD*%
D13*
%TO.C,J1*%
X159241192Y-76762649D03*
X159241192Y-81812649D03*
X156701192Y-76762649D03*
X156701192Y-81812649D03*
X154161192Y-76762649D03*
X154161192Y-81812649D03*
X151621192Y-76762649D03*
X151621192Y-81812649D03*
X149081192Y-76762649D03*
X149081192Y-81812649D03*
X146541192Y-76762649D03*
X146541192Y-81812649D03*
X144001192Y-76762649D03*
X144001192Y-81812649D03*
%TD*%
D14*
%TO.C,C1*%
X162300000Y-104500000D03*
X162300000Y-100900000D03*
%TD*%
D15*
%TO.C,J2*%
X158330000Y-110669726D03*
D16*
X155790000Y-110669726D03*
X153250000Y-110669726D03*
X150710000Y-110669726D03*
X148170000Y-110669726D03*
X145630000Y-110669726D03*
%TD*%
M02*
