M48
; DRILL file {KiCad 9.0.5} date 2025-11-02T19:46:21-0300
; FORMAT={-:-/ absolute / metric / decimal}
; #@! TF.CreationDate,2025-11-02T19:46:21-03:00
; #@! TF.GenerationSoftware,Kicad,Pcbnew,9.0.5
; #@! TF.FileFunction,Plated,1,2,PTH
FMAT,2
METRIC
; #@! TA.AperFunction,Plated,PTH,ViaDrill
T1C0.300
; #@! TA.AperFunction,Plated,PTH,ComponentDrill
T2C1.000
%
G90
G05
T1
X140.406Y-81.306
X140.419Y-77.694
X141.0Y-103.1
X142.0Y-92.0
X142.181Y-85.294
X143.85Y-87.45
X144.0Y-92.0
X144.0Y-102.6
X144.001Y-76.763
X144.001Y-81.813
X145.0Y-86.1
X145.694Y-88.843
X146.0Y-102.8
X146.541Y-76.763
X146.541Y-81.813
X148.2Y-87.3
X149.081Y-76.763
X149.081Y-81.813
X151.484Y-99.493
X151.621Y-76.763
X151.621Y-81.813
X154.161Y-76.763
X154.161Y-81.813
X154.7Y-92.1
X155.9Y-106.4
X156.701Y-76.763
X156.701Y-81.813
X158.4Y-91.0
X158.451Y-104.951
X159.241Y-76.763
X159.241Y-81.813
X162.3Y-88.15
X162.3Y-91.1
X162.3Y-100.9
X162.3Y-104.5
X163.825Y-89.625
T2
X145.63Y-110.67
X148.17Y-110.67
X150.71Y-110.67
X153.25Y-110.67
X155.79Y-110.67
X158.33Y-110.67
M30
