%TF.GenerationSoftware,KiCad,Pcbnew,9.0.5*%
%TF.CreationDate,2025-11-02T19:46:25-03:00*%
%TF.ProjectId,WCM_v1D,57434d5f-7631-4442-9e6b-696361645f70,rev?*%
%TF.SameCoordinates,Original*%
%TF.FileFunction,Legend,Top*%
%TF.FilePolarity,Positive*%
%FSLAX46Y46*%
G04 Gerber Fmt 4.6, Leading zero omitted, Abs format (unit mm)*
G04 Created by KiCad (PCBNEW 9.0.5) date 2025-11-02 19:46:25*
%MOMM*%
%LPD*%
G01*
G04 APERTURE LIST*
%ADD10C,0.100000*%
%ADD11C,0.062500*%
%ADD12C,0.150000*%
%ADD13C,0.254000*%
%ADD14C,0.200000*%
%ADD15C,0.010000*%
%ADD16C,0.120000*%
G04 APERTURE END LIST*
D10*
X136008646Y-110872419D02*
X136246741Y-111872419D01*
X136246741Y-111872419D02*
X136437217Y-111158133D01*
X136437217Y-111158133D02*
X136627693Y-111872419D01*
X136627693Y-111872419D02*
X136865789Y-110872419D01*
X137818169Y-111777180D02*
X137770550Y-111824800D01*
X137770550Y-111824800D02*
X137627693Y-111872419D01*
X137627693Y-111872419D02*
X137532455Y-111872419D01*
X137532455Y-111872419D02*
X137389598Y-111824800D01*
X137389598Y-111824800D02*
X137294360Y-111729561D01*
X137294360Y-111729561D02*
X137246741Y-111634323D01*
X137246741Y-111634323D02*
X137199122Y-111443847D01*
X137199122Y-111443847D02*
X137199122Y-111300990D01*
X137199122Y-111300990D02*
X137246741Y-111110514D01*
X137246741Y-111110514D02*
X137294360Y-111015276D01*
X137294360Y-111015276D02*
X137389598Y-110920038D01*
X137389598Y-110920038D02*
X137532455Y-110872419D01*
X137532455Y-110872419D02*
X137627693Y-110872419D01*
X137627693Y-110872419D02*
X137770550Y-110920038D01*
X137770550Y-110920038D02*
X137818169Y-110967657D01*
X138246741Y-111872419D02*
X138246741Y-110872419D01*
X138246741Y-110872419D02*
X138580074Y-111586704D01*
X138580074Y-111586704D02*
X138913407Y-110872419D01*
X138913407Y-110872419D02*
X138913407Y-111872419D01*
X140056265Y-111205752D02*
X140294360Y-111872419D01*
X140294360Y-111872419D02*
X140532455Y-111205752D01*
X141437217Y-111872419D02*
X140865789Y-111872419D01*
X141151503Y-111872419D02*
X141151503Y-110872419D01*
X141151503Y-110872419D02*
X141056265Y-111015276D01*
X141056265Y-111015276D02*
X140961027Y-111110514D01*
X140961027Y-111110514D02*
X140865789Y-111158133D01*
X141865789Y-111872419D02*
X141865789Y-110872419D01*
X141865789Y-110872419D02*
X142103884Y-110872419D01*
X142103884Y-110872419D02*
X142246741Y-110920038D01*
X142246741Y-110920038D02*
X142341979Y-111015276D01*
X142341979Y-111015276D02*
X142389598Y-111110514D01*
X142389598Y-111110514D02*
X142437217Y-111300990D01*
X142437217Y-111300990D02*
X142437217Y-111443847D01*
X142437217Y-111443847D02*
X142389598Y-111634323D01*
X142389598Y-111634323D02*
X142341979Y-111729561D01*
X142341979Y-111729561D02*
X142246741Y-111824800D01*
X142246741Y-111824800D02*
X142103884Y-111872419D01*
X142103884Y-111872419D02*
X141865789Y-111872419D01*
D11*
X139835559Y-98801916D02*
X139597464Y-98968582D01*
X139835559Y-99087630D02*
X139335559Y-99087630D01*
X139335559Y-99087630D02*
X139335559Y-98897154D01*
X139335559Y-98897154D02*
X139359369Y-98849535D01*
X139359369Y-98849535D02*
X139383178Y-98825725D01*
X139383178Y-98825725D02*
X139430797Y-98801916D01*
X139430797Y-98801916D02*
X139502226Y-98801916D01*
X139502226Y-98801916D02*
X139549845Y-98825725D01*
X139549845Y-98825725D02*
X139573654Y-98849535D01*
X139573654Y-98849535D02*
X139597464Y-98897154D01*
X139597464Y-98897154D02*
X139597464Y-99087630D01*
X139573654Y-98420963D02*
X139573654Y-98587630D01*
X139835559Y-98587630D02*
X139335559Y-98587630D01*
X139335559Y-98587630D02*
X139335559Y-98349535D01*
X139835559Y-98159059D02*
X139335559Y-98159059D01*
X139335559Y-98159059D02*
X139692702Y-97992392D01*
X139692702Y-97992392D02*
X139335559Y-97825726D01*
X139335559Y-97825726D02*
X139835559Y-97825726D01*
X139835559Y-97563820D02*
X139835559Y-97468582D01*
X139835559Y-97468582D02*
X139811750Y-97420963D01*
X139811750Y-97420963D02*
X139787940Y-97397154D01*
X139787940Y-97397154D02*
X139716511Y-97349535D01*
X139716511Y-97349535D02*
X139621273Y-97325725D01*
X139621273Y-97325725D02*
X139430797Y-97325725D01*
X139430797Y-97325725D02*
X139383178Y-97349535D01*
X139383178Y-97349535D02*
X139359369Y-97373344D01*
X139359369Y-97373344D02*
X139335559Y-97420963D01*
X139335559Y-97420963D02*
X139335559Y-97516201D01*
X139335559Y-97516201D02*
X139359369Y-97563820D01*
X139359369Y-97563820D02*
X139383178Y-97587630D01*
X139383178Y-97587630D02*
X139430797Y-97611439D01*
X139430797Y-97611439D02*
X139549845Y-97611439D01*
X139549845Y-97611439D02*
X139597464Y-97587630D01*
X139597464Y-97587630D02*
X139621273Y-97563820D01*
X139621273Y-97563820D02*
X139645083Y-97516201D01*
X139645083Y-97516201D02*
X139645083Y-97420963D01*
X139645083Y-97420963D02*
X139621273Y-97373344D01*
X139621273Y-97373344D02*
X139597464Y-97349535D01*
X139597464Y-97349535D02*
X139549845Y-97325725D01*
X139335559Y-96873345D02*
X139335559Y-97111440D01*
X139335559Y-97111440D02*
X139573654Y-97135249D01*
X139573654Y-97135249D02*
X139549845Y-97111440D01*
X139549845Y-97111440D02*
X139526035Y-97063821D01*
X139526035Y-97063821D02*
X139526035Y-96944773D01*
X139526035Y-96944773D02*
X139549845Y-96897154D01*
X139549845Y-96897154D02*
X139573654Y-96873345D01*
X139573654Y-96873345D02*
X139621273Y-96849535D01*
X139621273Y-96849535D02*
X139740321Y-96849535D01*
X139740321Y-96849535D02*
X139787940Y-96873345D01*
X139787940Y-96873345D02*
X139811750Y-96897154D01*
X139811750Y-96897154D02*
X139835559Y-96944773D01*
X139835559Y-96944773D02*
X139835559Y-97063821D01*
X139835559Y-97063821D02*
X139811750Y-97111440D01*
X139811750Y-97111440D02*
X139787940Y-97135249D01*
X139335559Y-96682869D02*
X139835559Y-96563821D01*
X139835559Y-96563821D02*
X139478416Y-96468583D01*
X139478416Y-96468583D02*
X139835559Y-96373345D01*
X139835559Y-96373345D02*
X139335559Y-96254298D01*
D12*
X138926460Y-102155725D02*
X139737532Y-102155725D01*
X139737532Y-102155725D02*
X139832952Y-102108015D01*
X139832952Y-102108015D02*
X139880663Y-102060305D01*
X139880663Y-102060305D02*
X139928373Y-101964884D01*
X139928373Y-101964884D02*
X139928373Y-101774044D01*
X139928373Y-101774044D02*
X139880663Y-101678623D01*
X139880663Y-101678623D02*
X139832952Y-101630913D01*
X139832952Y-101630913D02*
X139737532Y-101583203D01*
X139737532Y-101583203D02*
X138926460Y-101583203D01*
X139928373Y-100581290D02*
X139928373Y-101153812D01*
X139928373Y-100867551D02*
X138926460Y-100867551D01*
X138926460Y-100867551D02*
X139069590Y-100962971D01*
X139069590Y-100962971D02*
X139165010Y-101058392D01*
X139165010Y-101058392D02*
X139212721Y-101153812D01*
D13*
X161148571Y-86011461D02*
X161753333Y-86011461D01*
X161027619Y-86374318D02*
X161450952Y-85104318D01*
X161450952Y-85104318D02*
X161874286Y-86374318D01*
X162297618Y-86374318D02*
X162297618Y-85104318D01*
X162297618Y-85104318D02*
X163023333Y-86374318D01*
X163023333Y-86374318D02*
X163023333Y-85104318D01*
X163446666Y-85104318D02*
X164172380Y-85104318D01*
X163809523Y-86374318D02*
X163809523Y-85104318D01*
D12*
X161664460Y-78720303D02*
X161664460Y-79434588D01*
X161664460Y-79434588D02*
X161616841Y-79577445D01*
X161616841Y-79577445D02*
X161521603Y-79672684D01*
X161521603Y-79672684D02*
X161378746Y-79720303D01*
X161378746Y-79720303D02*
X161283508Y-79720303D01*
X162664460Y-79720303D02*
X162093032Y-79720303D01*
X162378746Y-79720303D02*
X162378746Y-78720303D01*
X162378746Y-78720303D02*
X162283508Y-78863160D01*
X162283508Y-78863160D02*
X162188270Y-78958398D01*
X162188270Y-78958398D02*
X162093032Y-79006017D01*
X162260630Y-107448661D02*
X162213011Y-107496281D01*
X162213011Y-107496281D02*
X162070154Y-107543900D01*
X162070154Y-107543900D02*
X161974916Y-107543900D01*
X161974916Y-107543900D02*
X161832059Y-107496281D01*
X161832059Y-107496281D02*
X161736821Y-107401042D01*
X161736821Y-107401042D02*
X161689202Y-107305804D01*
X161689202Y-107305804D02*
X161641583Y-107115328D01*
X161641583Y-107115328D02*
X161641583Y-106972471D01*
X161641583Y-106972471D02*
X161689202Y-106781995D01*
X161689202Y-106781995D02*
X161736821Y-106686757D01*
X161736821Y-106686757D02*
X161832059Y-106591519D01*
X161832059Y-106591519D02*
X161974916Y-106543900D01*
X161974916Y-106543900D02*
X162070154Y-106543900D01*
X162070154Y-106543900D02*
X162213011Y-106591519D01*
X162213011Y-106591519D02*
X162260630Y-106639138D01*
X163213011Y-107543900D02*
X162641583Y-107543900D01*
X162927297Y-107543900D02*
X162927297Y-106543900D01*
X162927297Y-106543900D02*
X162832059Y-106686757D01*
X162832059Y-106686757D02*
X162736821Y-106781995D01*
X162736821Y-106781995D02*
X162641583Y-106829614D01*
D14*
%TO.C,U1*%
X140975844Y-104958868D02*
X140975844Y-88958868D01*
X156975844Y-88958868D02*
X156975844Y-104958868D01*
X142267391Y-106708868D02*
G75*
G02*
X141684297Y-106708868I-291547J0D01*
G01*
X141684297Y-106708868D02*
G75*
G02*
X142267391Y-106708868I291547J0D01*
G01*
D15*
X142168044Y-106970368D02*
X141775844Y-106970368D01*
X141775844Y-106458868D01*
X142168044Y-106458868D01*
X142168044Y-106970368D01*
G36*
X142168044Y-106970368D02*
G01*
X141775844Y-106970368D01*
X141775844Y-106458868D01*
X142168044Y-106458868D01*
X142168044Y-106970368D01*
G37*
D10*
%TO.C,ANT*%
X159700000Y-89625000D02*
X159700000Y-89625000D01*
X159800000Y-89625000D02*
X159800000Y-89625000D01*
X159700000Y-89625000D02*
G75*
G02*
X159800000Y-89625000I50000J0D01*
G01*
X159800000Y-89625000D02*
G75*
G02*
X159700000Y-89625000I-50000J0D01*
G01*
D16*
%TO.C,J1*%
X142621192Y-76637649D02*
X142621192Y-81937649D01*
X143191192Y-76637649D02*
X142621192Y-76637649D01*
X143191192Y-81937649D02*
X142621192Y-81937649D01*
X145731192Y-76637649D02*
X144811192Y-76637649D01*
X145731192Y-81937649D02*
X144811192Y-81937649D01*
X148271192Y-76637649D02*
X147351192Y-76637649D01*
X148271192Y-81937649D02*
X147351192Y-81937649D01*
X150811192Y-76637649D02*
X149891192Y-76637649D01*
X150811192Y-81937649D02*
X149891192Y-81937649D01*
X153351192Y-76637649D02*
X152431192Y-76637649D01*
X153351192Y-81937649D02*
X152431192Y-81937649D01*
X155891192Y-76637649D02*
X154971192Y-76637649D01*
X155891192Y-81937649D02*
X154971192Y-81937649D01*
X158431192Y-76637649D02*
X157511192Y-76637649D01*
X158431192Y-81937649D02*
X157511192Y-81937649D01*
X160051192Y-75247649D02*
X160051192Y-76637649D01*
X160621192Y-76637649D02*
X160051192Y-76637649D01*
X160621192Y-76637649D02*
X160621192Y-81937649D01*
X160621192Y-81937649D02*
X160051192Y-81937649D01*
%TO.C,C1*%
X160040000Y-100440000D02*
X161240000Y-100440000D01*
X160040000Y-103895563D02*
X160040000Y-100440000D01*
X160490000Y-105450000D02*
X160990000Y-105450000D01*
X160740000Y-105700000D02*
X160740000Y-105200000D01*
X161104437Y-104960000D02*
X160040000Y-103895563D01*
X161104437Y-104960000D02*
X161240000Y-104960000D01*
X163495563Y-104960000D02*
X163360000Y-104960000D01*
X163495563Y-104960000D02*
X164560000Y-103895563D01*
X164560000Y-100440000D02*
X163360000Y-100440000D01*
X164560000Y-103895563D02*
X164560000Y-100440000D01*
%TD*%
M02*
